<svg xmlns="http://www.w3.org/2000/svg" viewBox="0 0 3778.97 2781.61" style="&#10;    fill: #2E7490;&#10;"><g id="Layer_2" data-name="Layer 2"><g id="Layer_1-2" data-name="Layer 1"><path d="M986.29,1936.58c-.87-7-1.41-13.07-8.38-16.43-1.69,5-2.9,9.73-4.83,14.13-3.77,8.63-9.72,11.14-18.54,8.07a17.39,17.39,0,0,1-6-3.36,26.13,26.13,0,0,0-22.94-7.12c-7.55,1.18-11.86-2.37-14.55-9.1-3-7.36-5.74-14.88-9.61-21.76-4.1-7.26-11.22-11-19.41-12.4-2.85-.48-5.78-.45-10.42-.79,2.42-3.15,3.95-5,5.34-7,1.7-2.38,4.07-4.64,4.78-7.31,3.18-11.91,11.81-17.13,22.91-19.2a44.92,44.92,0,0,1,11.93-.11c12.93,1.13,19.37-3.66,21-16.46.58-4.58-.47-9.73,4.12-12.7,6.07-3.93,12.22-7.9,18.81-10.77,2.34-1,6.34.58,9.1,2,6.19,3.08,11.8,1.55,17-1.69,3.44-2.13,5.32-5.27,4.43-10.12-1.55-8.41-.4-10.45,7.48-13.73,3.84-1.6,8.3-1.76,12.5-2.42,3.86-.6,8-.34,11.57-1.65,5.53-2,7.34-5.68,6-11.8-1.23-5.42,0-9.28,5-11.6,20.46-9.63,41.73-13.19,64.06-8a5.19,5.19,0,0,1,1.86,1.27c-.84,3.7-1.59,7-2.56,11.29,12.77,3.76,22.15,14,36.38,14.18,1.13-2.79,2.26-5.5,3.33-8.23,4.21-10.67,9.16-13.71,20.76-12.71.33,0,.65.16,1,.19,12.64,1.15,19.92-4.47,19.72-17.45-.16-11,5.67-16.48,14.14-20.65,5.17-2.54,10.19-3.72,15.93.11,6,4,12.25,1.41,17.54-2.62,3.13-2.39,3.76-5.68,3-9.8-1.35-7.63-.7-9.06,6.55-12.41a98.73,98.73,0,0,1,18.78-6.45,155.43,155.43,0,0,1,51.61-3c8.33.85,16.44,2.69,23.5,7.6,8.4,5.84,17.89,7,27.72,6.12,13.51-1.15,21.42-7.89,24.29-21.09,1-4.49.76-9.25,1.15-13.88.6-7.12,1.76-13.92,10.83-17.11,1.9,3,4,5.8,5.65,8.85,2.1,3.78,3.55,7.94,5.89,11.53,3.7,5.69,7.64,6,11.89.64,3.51-4.4,6.37-9.33,9.4-14.11,2.13-3.37,4.14-6.83,6-10.33a12.61,12.61,0,0,1,10-7.06c13.65-2,25.93-7.79,38.38-13.57,8.51-4,18.44-5.73,27.89-6.5,10.88-.89,21.93.73,32.9.65,8.62-.06,17.46,0,25.81-1.82,16.56-3.59,32.43-1.14,48.31,3.08,16.39,4.36,32.79,8.7,49.11,13.29,3,.85,5.69,2.86,8.4,5.47-18,6.4-36.82,7.17-55.06,10.75-18.46,3.62-36.92,2.86-55.23.77-1.34,4.6,1.4,5.68,3.91,6.28,22.85,5.52,45.76,9.14,68.57,0a42.62,42.62,0,0,1,25.52-1.84c5.72,1.28,10.48.36,15.44-1.73,4-1.67,7.91-3.49,11.9-5.15,8.51-3.54,17.2-4.25,26.42-3A171.18,171.18,0,0,0,1740,1648c8.65-.12,10.2.55,12.14,9.37a56.1,56.1,0,0,1,1.19,10.82c.31,13.48,2.8,26.14,9.83,38.08,4.67,8,7.18,17.14,11,25.64a49.74,49.74,0,0,0,6.46,11.16c8.45,10.38,20.55,12.8,32.08,5.81a78.45,78.45,0,0,0,17.82-14.25c14.13-15.81,30.71-16.7,49.11-9.81.93.35,1.86.7,2.78,1.1,13.68,5.92,14.67,14.83,2.64,24a36.65,36.65,0,0,1-3.4,2c12.85,7.26,18.93,21.08,16,35.41-1.39,6.85-6.06,10.49-14.4,11.37-11.53,1.22-23.06,2.49-34.44,3.72-4.47,6.83-2.72,14-2.63,20.78.14,10.48-5.82,19.61-16,21.81a41.9,41.9,0,0,0-17.78,8.19c-5.84,4.62-13,7.55-19.61,11.22a33,33,0,0,1-16.07,4.49c-5.9.06-11.78,1.6-18.2,2.57-2.71,7.7-9.59,9.65-17.15,10.57-2.94.36-6,.46-8.75,1.46-7.76,2.84-9.58,8.76-5.17,15.85.7,1.13,1.37,2.51,2.44,3.13,8.7,5.06,9.85,13.68,11.85,22.47,2.35,10.3,6.19,20.3,9.82,30.27,2.78,7.63.76,14.08-6.26,17.49-8.23,4-17.51,2.29-19.44-5.25-2.36-9.21-8.81-10.66-16-12.28-6.16-1.39-12.29-2.88-18.48-4.06a25.73,25.73,0,0,0-21.49,4.94c-5.38,4-12.33,6.2-18.88,8.29-8.55,2.74-16.92,5.18-23.91,11.5-4.78,4.32-10.29,8.4-18,5.29-1.53-.62-5.65,2.11-6.77,4.25-1.61,3.08-1.65,7-2.22,10.59-.93,5.9-.89,12.12-2.89,17.61-1.6,4.35-4.91,9.61-8.8,11.2a23,23,0,0,0-10.65,8.84c-10.58,1.39-16.64-3.48-20.29-12.62-2.43-6.09-3.23-6.18-9.76-3.74-1.55.59-3,1.36-4.64,1.79-12.4,3.34-18.78.18-23.65-11.63-.63-1.52-1.22-3.05-1.41-3.53-9.72-4.12-18.59-7.72-27.32-11.63-17.39-7.77-35-14.71-54.54-13.69-4.42.23-9.37-4.66-13,.13-2.42,3.17-3.27,7.66-4.34,11.69-2.39,9-5.78,17.3-12.28,24.22-5.4,5.74-11.19,5.36-15.08-1.49s-9.48-12.7-10.34-21.2c-.41-4-4-4.58-7.8-3.44-9.06,2.7-10.39,1.77-15.69-5a39.24,39.24,0,0,0-11.66-10.37c-14.62-7.83-29.58-15.06-44.54-22.26-4.41-2.12-8.21-4.31-9.06-11.21,3.65-2.23,7.61-5,11.91-7.16,4.46-2.21,9.22-3.8,13.89-5.56a26.1,26.1,0,0,0,14.44-13.11c3.07-6.12,8.16-11.25,8.3-18.88.16-8.5-.72-11-8.58-13.1-9.27-2.44-18.72-4.23-28.16-6-4.32-.8-7.56-1.87-10.55-5.93-3.62-4.9-8.68-9.59-14.15-12.12-17.45-8.06-34-18.39-53-22.74-7.78-1.77-15.41-4.17-23.22-5.77-3.49-.72-7.26-.36-10.89-.16-6.63.38-13.26,1.5-19.87,1.42-9.25-.11-13-3.78-14.75-13a53.85,53.85,0,0,0-1.42-5.73c-.17-.54-.93-.9-2.19-2.07a35.19,35.19,0,0,0-3.44,5.11c-1.89,4.25-3.25,8.74-5.25,12.93-2.61,5.48-6.84,8.78-13.31,8.85s-9.35-4.69-11.87-9.27c-1.68-3-2-6.82-3.41-12.08-2,3.24-3.45,5.18-4.54,7.3-2.1,4.14-3.62,8.64-6.12,12.5-3.32,5.14-8.11,6.71-11.7,2.59-11.14-12.78-26.46-8.29-40-11-8.44-1.67-17.24-1.65-25.57-3.66a25.2,25.2,0,0,0-19.17,2.81,229.35,229.35,0,0,0-21.49,14.53c-8.4,6.17-7.86,16.4,1.15,21.92,7.94,4.85,16,9.52,24.22,13.87,19.38,10.28,38.82,20.47,58.39,30.38,5.6,2.83,11.74,4.56,17.62,6.84,9.89,3.82,19.7,7.83,29.65,11.49,13.09,4.82,26.17,9.72,40.65,6.79,9-1.83,16.34-5.79,19.74-14.81,3.5-9.28,10.8-13.6,19.91-14,13.39-.5,26.55,1.06,38.2,9,3.22,2.19,7.17,3.44,10.93,4.71,9.79,3.34,10.91,4.75,9.25,14.86q-3,18.54-6.59,37c-1.16,6-3.4,11.8-9.18,14.75a22.71,22.71,0,0,0-12.81,17.24l5.53,2.74c-5.27,8.77-11.63,15.72-20.52,20.16-1.78.89-3.64,1.64-5.39,2.59-12.2,6.65-14.21,6.5-24.55-2.63a55.13,55.13,0,0,1-5-5.47c-4.32,1.58-7.41,3.49-10.62,3.7a19.06,19.06,0,0,0-14.45,7.52c-4.57,5.68-9.69,11-13.88,16.88-4.81,6.83-2.66,14.17,5.25,16.43,6,1.72,7.53,5.06,8.59,10.5,1.74,8.94,4.52,17.68,7,26.94,3.84.35,3.84.35,12.76-7.4,2.73,5.84,3.08,11.19,0,16.91-4.73,8.77-1.33,16.24,8.23,17.15,6,.56,9.4,3.27,10.66,8.63a11.09,11.09,0,0,0,6.53,8.08,16.9,16.9,0,0,1,9.28,11.11c2.85,10.55,6.28,21,8.56,31.63,1.19,5.55,4.73,7.08,9,7.56a69.28,69.28,0,0,0,16,.14c10.62-1.3,17.56,4.79,22.16,12.4,3.11,5.16,7.22,8.3,11.45,11.8,5,4.18,11,7.31,13.48,14.15.64,1.81,3.36,3,5.27,4.2,8.86,5.79,9.5,8.43,3.74,17.7-6.66,10.72-13.47,21.36-20.13,32.08a48.2,48.2,0,0,0-2.56,5.8c8.15,3,15.56,6.89,22.78-.92,3.52-3.82,7.64-2.68,10.61.28a39,39,0,0,1,8,11.19c5.22,11.47,10,23.16,14.55,34.9,1,2.66.67,5.87.08,9.32-6.62-4.73-13.38-6-20.76-6.57-6.84-.55-13.42-3.79-20.27-4.84-5.43-.83-11.11-.43-16.63,0-5.2.37-10.33,1.77-15.53,2.13-8.88.61-17.82.43-26.68,1.2-8.33.72-12,6.78-9.31,14.93,1.94,6,4.58,11.76,6.45,17.77,2.39,7.68,1,10.06-6.85,12.46a70.08,70.08,0,0,1-7.8,1.63c-12.4,2.31-24.77,4.85-37.24,6.78a42.93,42.93,0,0,0-18.38,6.92,70.48,70.48,0,0,1-14,7.48c-6.12,2.43-9.51.64-11.2-5.79-1-3.79-.87-7.88-1.11-11.84-.18-3,.2-6-.26-9-.78-5-4.05-6.66-8.67-4.34-2.32,1.17-5,2.69-6.22,4.8-3.69,6.45-9.45,6.49-15.57,6.05-11.49-.84-20.73,3.78-28.55,11.77s-8.85,14.36-3.47,24.25c3.14,5.76,6.56,11.36,10.68,18.44-4.32,1.1-7.37,2.71-10.26,2.47-9.57-.8-19.08-2.29-28.62-3.48-4.23-.53-8.55-1.7-12.7-1.28-7.47.74-10.9,5.8-9.84,13s-.13,9-7,10c-9.16,1.22-12.57,4.76-10.05,13.86,2.73,9.81-2.18,14.14-9.76,18.57a64.82,64.82,0,0,0-5.86-4.86c-5.89-3.88-11-1.5-10.51,5.43.45,5.81,2.36,11.65,4.44,17.17,2,5.26,5.15,10.06,7.57,15.17,1.81,3.83,1,7.28-3,9.12a95.85,95.85,0,0,1-13.91,5.43c-8,2.23-14.39,6.8-19.77,12.9-5.94,6.74-11.3,14-17.74,20.25s-13.86,11.18-20.76,16.81c-4.86,4-10.25,7.54-14.18,12.3-5.78,7-6.46,14.26-2.79,23.86,6.23,16.3,9.73,33.7,13.57,50.81,1,4.59-.6,9.88-1.5,14.76a64.76,64.76,0,0,1-2.82,9c-47.55,9.19-94.5,18.12-141.39,27.36-44.33,8.74-88.7,17.36-132.86,26.88-29.54,6.37-58.7,14.43-88.14,21.29-7.05,1.65-14.5,1.61-21.78,2.18-20.9,1.66-41.75,2.84-62.77.92-16.88-1.53-33.93-1.11-50.84-2.44-32.14-2.52-64.25-5.13-95.94-11.91a114.83,114.83,0,0,1-56.62-29.9c-15.54-15-33.23-24-54.24-27.34-1.94-.31-3.82-.93-7.36-1.81a45.36,45.36,0,0,1,4.77-2.53,34.81,34.81,0,0,1,4.54-.87c.65-3.46,1.31-6.94,1.95-10.34-7.5-2.36-96.84-2.9-117.15-.79-.88,2.95-2.28,6.27-2.81,9.73-.66,4.3-2.63,6.74-7,6.86q-36.42,1-72.85,1.95c-1.21,0-2.44-.74-4.36-1.36.88-2.44,1.33-4.65,2.4-6.5q24.69-42.85,49.55-85.61c5.24-9,11.58-9.71,18.83-2,2.67,2.84,5.31,3.28,8.85,3,29.57-2,59.15-3.8,88.74-5.65,12.62-.79,25.25-1.5,37.88-2.34,4.25-.28,8.49-.87,13.09-1.35,2.92-12.59,5.82-24.5,8.35-36.5.43-2.06-.35-4.62-1.23-6.66-10.62-24.89-8.1-48.71,5.47-71.73.5-.85.84-1.79,1.48-3.16-3.86-8.49-9.06-15.09-19.06-18.23-16.5-5.19-32.58-11.73-48.82-17.75-3.07-1.14-6.06-2.5-10.11-4.19,3.64-14.54,9.92-27.64,14.66-41.88,2.81.62,5,1.06,7.13,1.6s4.38,1.23,7.88,2.21c6.86-17.76,13.6-35.24,20.61-53.39l39.13,14.43c-.19-7.3-.88-13.77-4.31-18.71a37.11,37.11,0,0,1-6.87-20.91l-23.43-9.84c5.36-6.25,9.27-1.29,13.07-.35,4.15,1,8.08,2.88,12.4,4.48,5.63-5.76,11.61-10,19.68-11.2,3.11-.44,5.8-3.78,10.69-7.2l-45.92-18L236.71,2250c7.95,3.06,15,5.76,22,8.49,19.24,7.49,38.46,15.05,57.73,22.45,8,3.08,8.64,2.75,12.26-4.71,1.86-3.82,3.47-7.76,5.5-12.33-4.5-2.3-8.24-4.29-12.06-6.15-24.55-12-49.06-24-73.71-35.77-5.94-2.83-12.78-4.13-15.07-11.59A2.6,2.6,0,0,0,232,2209c-10.4-4.29-17.59-14.47-29.48-16.05a7.22,7.22,0,0,1-3.67-1.37c-10.59-9.38-24.09-12.2-36.88-16.69-2.23-.79-5.67-3.14-5.58-4.59.36-5.87-3.75-7.26-7.56-9.2q-18.69-9.54-37.42-19c-1.77-.89-3.74-2.37-5.49-2.21-7.9.73-9.71-3.9-9.49-10.69-3.05-1-6-1.63-8.65-2.77-4.67-2-8.41-4.58-9.82-10.2-1-3.88-3.78-7.31-6.19-11.73l11.69-.79c6.43-15.69,13.08-31.89,19.5-47.55,6.79-.59,12.62-1.42,18.46-1.44,2.83,0,5.76,1.27,8.49,2.37,16.69,6.68,33.34,13.49,50,20.22,2.43,1,4.93,1.78,8.35,3,7.07-13,11.55-26.83,17.45-41-2.95-1.57-5.41-3.12-8.05-4.22-13.82-5.78-27.43-12.25-41.63-16.91-12-3.94-20.29-11.69-28.59-22l18.15-44.62-5.72-7,16.74-11.27,17.42,5.28c4-3.89,8.16-4,14.59-.31,8.52,4.86,18.7,6.8,28.18,9.93,5.06,1.67,10.13,3.31,15.24,4.8,4.59,1.33,9.19,4.38,13.56-1.28.78-1,5.46.4,8,1.47,9.17,3.86,17.88,9.26,27.37,11.83,14.51,3.92,28.56,9.64,43.52,11.91,1.3.19,2.89,1.09,3.85.62,7.67-3.72,14.14.49,21,2.78q29.35,9.87,58.78,19.55c1.85.61,3.76,1,6.72,1.81-1.81-9.93-3.66-18.53-11.16-25.19-6.19-5.49-11.49-11.78-18.93-16a33.52,33.52,0,0,1-14.43-17.4c-4.79-12.36-14-21.66-24.69-28-17.06-10.08-25.17-25.08-29.63-43-5.37-21.66-4.5-43.63-1.89-65.55,3.53-29.52,11-58.16,19.7-86.55,1.9-6.22,5.2-9.15,11.32-8.55,8.26.81,12.58-2.86,15.68-10.41,4.67-11.35,10.53-22.21,16.06-33.66l-12.1-17.87c4.39-7.47,8.9-15.54,13.79-23.38,30.44-48.77,64.76-94.48,106.44-134.37,18.84-18,39-34.29,61.44-47.69,2.78-1.66,5.76-3,9.1-4.68,4.25,7.18,10.81,8.44,17.62,10.55,19.37,6,38.42,13.14,57.44,20.24,9.39,3.5,9.24,3.9,18.85,0,5.51,2.83,11,7.76,17.44,2.68,5,5.32,9.44,10.19,14.1,14.79a23.23,23.23,0,0,0,6.43,4.52c13.6,6.3,27.38,12.22,40.89,18.7,4.87,2.33,8.75,2.11,12.79-1.32a35,35,0,0,1,6.66-4.39c1.68-.86,4.36-2.13,5.43-1.43,5,3.3,9.55,1.16,13.94-.78,15.49,22.58,40.46,29.69,62.77,40.87,4,2,7.62,1.52,10.74-2.14a78.72,78.72,0,0,1,6.72-6.25c9.54,4,18.65,7,26.18,15.2,9.76,10.64,23.63,16.46,37,25.36-.35-2.9-.12-4.14-.61-4.6-16.57-15.7-26.53-35.8-36.25-55.83-12.35-25.42-23.32-51.51-35.55-77a114.65,114.65,0,0,0-15.65-24.2c-9.2-10.92-20.11-20.41-29.28-31.35-4.78-5.7-7.75-13-10.87-19.93-1.9-4.17-2.53-8.91-3.84-13.84-11.33-2.64-17.5-11.15-22.7-20.72-9-16.49-14.91-34.13-20-52.09-1.55-5.42-3.2-9.84-8.93-13.33-4.4-2.68-6.23-9.68-9-14.83-2.21-4-4.12-8.24-6.33-12.28-.61-1.12-1.74-2.61-2.77-2.74-12.94-1.57-15.92-12.84-21.4-21.67-.69-1.13-1.2-2.37-1.84-3.65-4.8-1-9.8-1.49-14.34-3.21-9.1-3.44-14.94-10-15.49-20.09-.56-10.27-1.3-20.59-.77-30.83.33-6.55-1.09-11.71-5.52-16.29-2.78-2.87-5.11-6.31-8.26-8.66-18.19-13.63-29-32.7-39.37-52.19a112.08,112.08,0,0,0-29.09-35c-3.75-3-6.59-7.39-9.18-11.56-2.45-4-5.17-6-10-6.91-18.64-3.33-28.81-24.55-20.16-41.79,2-4,3.45-7.29,2.06-12.06-1.75-6,1.11-10.89,6.41-14.33,2.74-1.78,5.24-3.91,7.94-6,1.78.65,3.88,1.23,5.8,2.15,3.36,1.63,8.54,2.74,9.54,5.37,2.6,6.84,8,8.32,13.71,10.1a29.62,29.62,0,0,1,3.71,1.49c13.71,6.5,17.85,17,12.39,31.26-3.32,8.68-3.37,8.73,3.79,15a54.66,54.66,0,0,1,14.57,20c5.57,13,13.9,24.06,23.67,34.3,12.18,12.76,23.68,26.16,35.47,39.29,2,2.19,3.87,4.44,6.58,7.55,8.81-5.11,17.66-9.62,25.82-15.15,6.9-4.68,5.11-14.75-2.79-18.08-7.36-3.09-14.87-5.86-22.28-8.85a19.17,19.17,0,0,1-8.2-5.53l41.07,7.55c1.06-.59,1.44-.68,1.61-.91,8.78-11.94,8.76-11.93,2.07-25.24q-5.39-10.71-10.61-21.51c-.2-.42.16-1.13.48-3,8,9.86,15.65,18.91,22.83,28.32,3.41,4.48,7.16,5.12,12.2,3.78,4.33-1.15,6.67-3.3,7.83-7.82a204.47,204.47,0,0,1,10.62-31.5,54.18,54.18,0,0,1,.38,6.72c-.54,8.63-1.14,17.27-1.92,25.89-.43,4.66,2.38,6.28,6,7.92s6.19,1.65,9-1.25a266.22,266.22,0,0,1,23.19-22c-5,11-12.55,20.39-18.91,31.59l7,8.62,36.48-16.76.84,1.27L789,1082c4.75,9,5.46,19.34,14.81,25.33,3,1.94,4.49,6.32,6.62,9.61,1.75,2.73,3.31,5.57,5.15,8.24,5.86,8.49,13.86,10.39,24.07,10.06,20.19-.67,36.05,9.4,47.51,25.17,7.18,9.88,17.71,12.6,27.59,16.79,6.26,2.65,14.22-3.06,15.43-9.83,1.46-8.19,2.81-16.41,3.83-24.67.66-5.35,2.61-9.21,7.67-11.89,8.82-4.67,17.43-9.79,25.89-15.1,4.82-3,9.17-3.5,14.59.77,0,3,.2,6.62,0,10.22-.41,6,.4,11.11,6.11,14.66a9.49,9.49,0,0,1,3.54,5.74c3.12,15.66,6.53,31.31,4.49,47.47-1.36,10.77-1.88,12.2-9,22.47,3.77,8.75,7.84,17.8,11.56,27a125.46,125.46,0,0,1,4.55,14.24c2.47,9.14,2.28,17.86-5.79,25.23,3.07,4,6,7.53,8.61,11.32q17.34,25.67,34.44,51.49c1.42,2.14,3.28,5.07,2.83,7.18-1.68,7.69,2.73,12.56,6.66,18,1.69,2.31,3.5,5.42,3.32,8-.49,7.32,3,12.73,6.9,18.17,2.74,3.77,5.11,7.82,8,11.48,5.5,7,10,14,7.18,23.67-.67,2.32.86,5.93,2.48,8.15,8.62,11.85,17.69,23.37,26.38,35.18,2.81,3.83,6.09,4.43,10.43,3.7,4.53-.75,5.74-3.82,6.73-7.56,12.72-48.28,25.56-96.52,38.1-144.84a35.59,35.59,0,0,0,.28-13.69c-.75-5.17-2.68-10.18-4.25-15.84l6.89-5-11.42-12c12.19-.86,14.07-8.92,16.18-16.63,7.79-28.44,10.11-57.66,12.15-86.9a9,9,0,0,0-1.49-5.53c-2.8-3.76-2.62-7.31-.34-11.08,1.84-3,1-5.41-1.23-8a54.54,54.54,0,0,1-6.58-9.87c-5.39-10.11-5.09-10,2.55-19.26,3.74-4.53,6.83-9.46,5.89-16.21-3.21-23.07-5.6-46.26-9-69.3-6.23-42.5-12.93-84.92-19.44-127.37-.46-3-1.1-5.89-1.57-8.85-5-31.17-9.63-62.39-15-93.5-2.19-12.75-5.7-25.28-8.9-37.84a43,43,0,0,0-8.11-16.9,23.57,23.57,0,0,1-4.91-13.77c0-3.56,3.72-7.13,6-11-.89-1-2.12-2.38-3.77-4.21,9.83-6.29,9.59-15.35,7.39-24.88-1.87-8.11-3.93-16.18-5.7-24.31-.44-2.07-.06-4.32-.06-7.88,4.58,3.79,4.76,8.27,5.81,12.15,1.74,6.41,3.12,12.93,4.46,19.45,2,9.89,6.9,17.13,17.68,19-.69,2.07-1.19,3.6-1.7,5.11.37.54.6,1.26,1.09,1.54,3.06,1.76,7.89,2.73,8.9,5.25,1.88,4.72,1.84,10.31,2.07,15.56.26,5.88-1.15,12,.06,17.63,3.3,15.25,7.25,30.38,11.59,45.37q9.84,34,20.61,67.7,31.92,99.86,64.2,199.6c.82,2.53,1.9,5,2.77,7.49,3.45,10,9,17.57,20.36,19.37,3.82.61,5.62,3.46,5.45,7.25-.28,6.3-.11,12.72-1.41,18.82-.83,3.93-.48,6.42,2.67,8.54,3.37,2.27,4.54,5.28,4.41,9.37a14.43,14.43,0,0,0,2.09,7.39c13.84,23.55,28.12,46.84,45.82,67.8.86,1,1.67,2.08,2.6,3,5.5,5.63,10.4,12.58,21.67,7.83-1.65,6.11-2.81,10.42-4.16,15.43l8.78,2.08c-.79,16,7.66,27.25,18,38.32,22.51,24.08,44.13,49,65.9,73.76,3.49,4,6.81,5.49,12.1,4.42,22.85-4.64,45.77-8.93,68.66-13.38a42.1,42.1,0,0,0,4.61-1.54c1.15-22.86,3.81-45.69,3.71-68.65l-2-.39-3.62,9c-1.09-.82-2.1-1.17-2.38-1.84-10.6-24.87-18.61-50.54-22.6-77.31-6.14-41.15,8.9-74.35,39.18-101.54,2.14-1.92,4.74-3.34,6.19-6.08-60,13.35-108.57,46.84-155.88,84a33.38,33.38,0,0,1,1.2-4.9c8.88-21.54,18-43,31.23-62.34,20.09-29.3,47.61-45.8,83.07-48.67,11.93-1,23.9-1.27,35.85-1.89a9.35,9.35,0,0,0,4.78-1.32c-14.27-12.25-30.86-20.15-47.68-27.56s-34.5-11.88-52.65-14.53-36.54-5.19-55.25-7.85c.74-1,1.1-2.13,1.81-2.47,22-10.51,44.46-20,68.67-23.52,32.87-4.78,63.62,1.35,90.69,21.76,5,3.75,9.89,7.61,16.45,12.67-2.54-8.13-4.78-14.26-6.38-20.56-5.14-20.21,0-38.9,9.37-56.7,11.38-21.64,28.49-38.37,47.15-53.68,2-1.64,3.89-3.38,7.19-6.25l-99-37.53c18-8.86,91.46-19.59,166.62-13.77,9.93-17.63,19.39-203.25,11.47-231.73-15.68,3.59-30.45,10.41-47.39,14.84-.26-4.23-.65-7.69-.64-11.15,0-8.32.54-16.66.24-25-.19-5.42,2-8.45,6.53-11.11,17.79-10.5,35.24-21.57,53.13-31.88,6.46-3.72,8.37-7.82,7.15-15.24-9.59-58.21-14-117-17.8-175.79-.25-3.92-.67-7.82-1.13-13.12l-256.26,23c-.55-2.66-1.15-4.21-1.16-5.77-.09-13.32.19-26.66-.19-40-.16-5.71,2.15-8.39,7.28-10.14,16.08-5.47,32-11.24,48-16.93,9-3.2,9-3.23,9.11-12.81.07-5-.25-10,.18-15,.69-8,5.49-12.46,12.8-12.54s12.25,4.42,13.37,12.15c.33,2.29,0,4.66.25,7s.64,4.45,1,7.1a49.32,49.32,0,0,0,6.25-1.29c14.76-5.2,29.43-10.68,44.28-15.63,5.68-1.89,8.09-5,7.6-10.93a88.06,88.06,0,0,1,.08-14c.65-8.6,5.53-13.33,13.18-13.26,7.94.07,12.26,4.56,12.8,13.36.22,3.52.37,7,.6,11.47,4-1,6.91-1.48,9.63-2.44q29.18-10.37,58.3-20.91c8.33-3,8.33-3.1,8.43-12.17.33-28-.11-56,1.14-83.9,1.31-29.31,5.12-58.4,15-86.29,3.92-11,8.71-21.65,16.63-30.52,11.13-12.48,18.39-12.66,29.48-.19,10.45,11.74,15.74,26.14,19.94,41,7.78,27.41,10.7,55.57,11.46,83.9.66,24.61.16,49.25.13,73.88,0,11.87,0,11.86,10.7,15.77q27.69,10.09,55.37,20.18c2.76,1,5.59,1.81,9.89,3.19.25-4.28.45-7.71.64-11.15.46-8.44,5.14-13.92,12.27-14.35,7.58-.47,13.22,4.9,13.84,13.83a127,127,0,0,1-.24,16c-.19,3.39.66,6,4,7.19,17.74,6.54,35.5,13,54.74,20.09.41-5.67.6-10.13,1.07-14.57,1-9.36,8.18-14.62,16.7-12.22,6.36,1.8,9,6.67,9.48,12.7a98,98,0,0,1,0,17c-.55,5.37,1.55,7.78,6.4,9.49,16,5.63,31.93,11.59,47.86,17.49,3.07,1.14,6,2.54,8.74,3.69v52.9c-85.7-7.9-170.27-16.9-255.71-24.81-.75,3.11-1.67,5.54-1.88,8-2.55,29.18-4.44,58.43-7.6,87.55-3.42,31.43-7.92,62.74-12.14,94.08-1.15,8.52-1.53,8.56,6.33,13.44,17,10.56,33.78,21.41,51.11,31.36,7.09,4.08,9.56,8.92,9.1,16.81-.61,10.23-.15,20.52-.15,32.7l-54-18.36c-.49,4.19-1.13,7-1.1,9.82.3,27.63.92,55.26.95,82.9,0,7.2,3.85,10.69,9.1,14.15,24,15.85,46,34,64.32,56.46,16.24,19.91,28.62,41.73,33.13,67.29a98.61,98.61,0,0,1-6,54.85,21.84,21.84,0,0,0-2,10.33c4-3.56,8.08-7.1,12.08-10.7,21.4-19.23,45.56-33.5,73.72-40.28,23-5.52,46.08-5.25,69.39-2,31.65,4.39,61,15.92,90.14,28.11.86.36,1.52,1.17,3.8,3-4.39.83-7.42,1.57-10.49,1.95-36,4.41-71.76,10.3-106.45,21.11-37.86,11.81-71.71,31.41-104.53,55.69,7.93,2.6,14.75,1.11,21.42.78,26.71-1.33,53.24-.75,79.18,6.75,35.12,10.16,61.78,31.8,82.74,61.12a60.63,60.63,0,0,1,4,5.76c2.6,4.64,5.92,6.09,11.52,5.14,20.35-3.47,40.82-6.23,61.24-9.37,7.88-1.21,8.65-2,9.53-10.17,1.49-13.9,2.47-27.86,4.17-41.73.63-5.06-1.44-8.1-6.31-10.09,12.48-15.49,14.09-33.86,20.58-50.35.46-1.18,1.07-2.3,2.73-5.79,4.85,18.38,3.69,35.59,8.9,52,9.16-8.85,12.89-20.83,20.83-31l10.23,11c2.46-3.32,4.72-6,6.57-9,10.77-17.21,21.32-34.56,32.27-51.65,2.22-3.47,5.87-6,9-9.11,9,15.93,10.87,33.18,15,49.76,2.32,9.3,4.39,18.67,6.69,28.52l7.8-2.43,17.83,50.16c5.74.6,8.34-1.61,9.79-6,5.16-15.65,10.47-31.24,15.78-47,1.62,15.41,3.22,30.64,4.83,45.86.1,1-.15,2.28.38,2.93,6.53,8.07,2.09,16.44,1.12,24.88q-12.75,111.15-25.1,222.34c-3.49,31.11-7,62.21-10.34,93.33-2.73,25.49-5.2,51-7.8,76.49-1.15,11.2-1.19,11.21,9.27,15.08,3.69,1.37,7.4,2.66,11.72,4.2,1.7-3.2,3.23-5.68,4.38-8.32,5.29-12.22,10.41-24.52,15.77-36.71,1-2.35,2.46-5.74,4.36-6.25,5.52-1.5,6.83-5.81,8.65-10.06,5.23-12.25,10.36-24.54,15.79-36.7,3.21-7.2,5.17-15,11.56-20.66,2.06-1.81,2.73-5.25,3.91-8,6.17-14.38,11.33-29.3,18.68-43,12.74-23.81,20.75-49.87,33.92-73.17,10.55-18.65,17.72-38.5,27-57.54,1.61-3.32,2.94-6.25,7.3-7.35,2.19-.56,4.08-4,5.24-6.55,3.88-8.48,7.17-17.22,11-25.69,2.87-6.24,4.47-13.19,10.51-17.77,1.88-1.43,2.48-4.61,3.52-7.06,5.62-13.16,11.14-26.37,16.82-39.51,3.35-7.74,3.5-8.15,11.68-7.22,5.32.61,7-2,8.71-6,7-16.57,14.49-32.93,21.06-49.66,3.49-8.86,9.12-13,18.31-11.55,11.14,1.79,22.43,3.31,33.19,6.51a181.06,181.06,0,0,1,52.81,25.69,109.85,109.85,0,0,1,15.08,13c5.05,5.16,6.16,10.94,2.76,18.16-8.78,18.66-16.78,37.67-24.9,56.1.49,1.26.55,2.07,1,2.45,8.84,7.62,10.48,5.34,4.33,18.74-4.72,10.29-9.31,20.64-13.69,31.08-2.52,6-6.38,11.61-5.51,18.84.29,2.31-1.7,5-2.77,7.38-4.7,10.66-9.49,21.28-14.15,32-1.43,3.27-3,6.31-.88,10.36,1.1,2.09.16,5.77-.85,8.34-2.66,6.82-5.94,13.39-8.84,20.12-13.62,31.68-25.45,64.09-38.85,95.89-8.89,21.07-19.51,41.63-26.34,63.39-5.48,17.48-12.63,34-19.85,50.71-1.85,4.28-3.81,8.51-5.71,12.77-2,4.51-4.38,8.69-2.08,14.19.91,2.16-.79,5.73-1.94,8.39-5,11.61-10.28,23.12-15.4,34.69-1.32,3-2.45,6-4,10l38.78,20.92,85.41-107.73c2.74.49,5.39,1.6,7.85,1.28,12.1-1.55,20.66,4.55,29.44,11.76,40.44,33.18,81.2,65.95,121.79,98.94a24.46,24.46,0,0,1,5.93,6.51c4.45,7.81,8,9.86,16.62,8.2a85.72,85.72,0,0,0,8.94-2.76c6,4.55,13.15,6.16,21.55,2.92.44,4,.81,7.33,1.35,12.12,2.7-2.31,4.53-3.53,5.92-5.14,4.58-5.29,8.79-10.9,13.53-16,5.12-5.56,9.43-11.14,7-19.37-.2-.68.77-1.7,1.52-3.22l8.37,3.65,8.44-9.1c14.77,8.69,29.42,16.85,41.43,28.83,2,2,4.69,3.42,7.86,5.68,1-3,1.53-5.1,2.32-7.1,1.18-3,3-4.58,6.75-4.64,10.12-.14,10.12-.36,18.65-8.28l3.62,3.33,11.37-6.49c10.5,10.17,23.13,6.91,36,3.22-4.42,17.61-2.6,23.75,5.86,34.38-4.78.54-5-3.75-7.2-5.41-1.7-1.3-4.14-3.25-5.6-2.8s-2.7,3.4-3.07,5.43c-.51,2.81-.13,5.77-.13,8.29,1.43.63,2,1.15,2.6,1.12,2.72-.13,5.7-4.29,7.93-.63,1.47,2.4,1,6,1.15,9.16.05.88-1.32,2-1.11,2.68,2.42,8.75-4.45,14.62-6.85,21.82-2.59,7.74-2.45,7.61,3.76,12.84,11.15,9.4,21.64,19.57,32.33,29.51.88.81,1.12,2.32,1.78,3.77l-8.25,10.18c1.72,2.72,3.23,5.09,5,7.92-1.65.92-2.89,2.21-3.83,2-8.1-1.66-12,3.86-16.35,9-4.72,5.6-9.64,11-14.38,16.62-1.4,1.66-2.45,3.61-4.65,6.91l12.63-1c-1.41,7.63,0,14,4.94,19.51a5.18,5.18,0,0,1,1,4.34c-2.83,7.68-.17,14.29,4.13,21.61,8.52-.58,14.26,5.66,20.44,11.19q58,52,116.25,103.83c5.54,4.91,9.2,10.2,10.24,17.5.55,3.91,1.75,7.73,2.85,12.4l-102.19,111.91c7.84,11.19,15,21.45,22.35,31.87,12.65-3.75,22.09-14.63,37.22-10.91,7.62,6.36,13.67,15.65,16.66,27.69,7.07-3,13.28-3.74,19.86-1.66,2,.63,5-1.36,7.33-2.54,6.24-3.15,12.4-6.49,18.55-9.81,11.88-6.42,25.45-10.67,31.19-25.77l7.75,6.28c3.58-.81,7.57-1.3,11.25-2.64,7.89-2.85,7.83-3,15.81.09,4.57-3.16,8.89-6.81,13.8-9.33a45,45,0,0,1,14.08-4.56c4.44-.63,7.46-6.45,12.78-3.31a1.94,1.94,0,0,0,1.85-.37c5.85-7.81,16.05-6.56,23.44-11.34s16.13-7.15,22.65-12.57c8.95-7.43,20.85-7.38,29.89-14.12,5.81-4.33,12.45-7.56,18.74-11.25,1.12-.67,2.33-1.67,3.51-1.7,13.85-.26,23.52-10.06,35.19-15.27,3.22-1.44,6.27-3.28,10.18-5.35.35-1.38.24-4.29,1.64-5.62,2.08-2,6-4.66,7.8-3.91,8.63,3.5,14.81-1.42,20.93-5.41,6.88-4.49,12.91-10.26,19.55-15.15,1.74-1.28,4.32-1.56,6.58-1.94,5.21-.89,10.46-2.07,15.7-2.14,3.43,0,6.89,1.63,11.21,2.77a19.68,19.68,0,0,0,2.2-1.89c2.38-2.5,4.84-5.33,8.21-1.71,2.46,2.64,1,6.15-2.91,8.77-1.57,1-2.92,2.39-5.85,4.84,8.78,1.54,13.14-3.65,18.63-5.09s10.66-3.47,16.73-4.1c-8.21,5.6-16.24,11.47-24.67,16.72-9.58,6-19.8,10.91-29.18,17.17a33.17,33.17,0,0,1-18.59,5.87c-4.16.05-6.75,1.38-9,4.91-1.5,2.39-4.27,4-6.39,6-1.37,1.31-3.16,2.56-3.75,4.2-2.64,7.34-4.3,8.3-11.25,5.74-.92-.34-1.89-.54-2.2-.63-10.5,5.33-20.63,10.17-30.43,15.58-4.24,2.34-7.83,5.85-11.7,8.84-1.29,1-2.41,2.3-3.84,3-8.7,4.13-17.46,8.1-26.19,12.16-1.21.56-2.36,1.24-3.51,1.91-6.89,4-12.29,10-20.72,12.27-7.85,2.08-15,7.15-22.17,11.31-4.22,2.44-8,5.67-12,8.51-1.05.75-2.18,1.92-3.3,2-4.67.18-8.68,1-9.73,6.5-11,6.3-19.15,17.62-33.17,18.51-.93,0-1.82.7-3.15,1.25-.28,6.16-2.65,10.6-8.85,13.91-5,2.68-11.28,6.91-6.65,15.18-2.49.57-4.18,1.5-5.62,1.21-9.33-1.89-16.79,2.62-24.45,6.66-9.43,5-19,9.69-28.31,14.86a24.61,24.61,0,0,0-7.11,6.39c-3.32,4.25-6.14,8.89-9.42,13.72l13,30.36-22.08,19.19c2.89,5.62,6.13,11.95,9.7,18.92,4.19-1.1,7.69-1.86,11.09-2.92q103-32.07,206-64.23c4-1.25,8.53-1.81,9.4-7.5.17-1.16,3-2.24,4.82-2.8q56.21-17.74,112.46-35.33c3.14-1,6-1.62,9.3.87,1.72,1.28,5.76.45,8.3-.55,9.39-3.69,18.47-3.72,28.16-.64,11.4,3.62,23.14,6.29,34.84,8.86a25.79,25.79,0,0,0,11.56-.28c9.66-2.52,19.24-5.46,28.66-8.75a42.66,42.66,0,0,1,20.59-2c25.38,3.58,50.79,6.9,77.5,10.49-2,2.54-3.08,4.43-4.62,5.82-17.81,16.06-35.79,31.93-53.47,48.13a39.87,39.87,0,0,1-16.32,9.12c-9,2.6-17.8,5.6-26.79,8.05a24.57,24.57,0,0,0-12.39,7.84c-9,10.24-18.6,20-27.42,30.43a29.83,29.83,0,0,1-15.57,10c-5.47,1.51-12.1,1.58-14,9.16-.3,1.2-3.3,1.91-5.17,2.49q-56.34,17.33-112.72,34.49c-1.83.56-4.76,1.25-5.68.35-4.74-4.65-9.29-1.71-13.9-.31q-44,13.38-87.91,26.83c-3.78,1.16-7.5,2.53-10.89,3.68-1.76,6.44,4.3,4.82,6.8,7-2.63,3.5-4.56,7-7.39,9.59-2.54,2.29-3.17,4.68-1.22,6.77,1.19,1.28,4.39,1.92,6.11,1.29,9.29-3.39,19-2.35,28.47-3.07.81-.06,1.67.43,3.52.94a119,119,0,0,1-33.1,17.64l.27,2.18,15.59,6.11c-.15,6.77-12.24,9.14-7.84,18.07l36.81-3.7c-9.35,9.31-21,14.07-34.3,20.52l18.61,7c-2,2.9-3.69,6.53-6.44,8.92-3.42,3-4.53,5.49-1.67,8.87l37.3-3.88.6,1.9c-10.65,6.88-21.42,13.56-34.08,17.13l.69,2.45,15.75,6.45c-2.45,3.44-5,6.63-7.08,10.09-1,1.71-2.21,4.46-1.51,5.77s3.74,2.14,5.61,1.94c11.05-1.2,22.05-2.77,33.06-4.21.27.77.53,1.54.8,2.3l-35.57,18.73,17.25,7.44c-2.63,3.43-4.92,6.57-7.37,9.59s-2.4,2.83.11,7.68l37.46-3.74.7,1.41c-3.56,2.32-7,4.78-10.7,6.94-4,2.32-8.07,4.35-12.09,6.53-3.76,2.05-9.56.61-11.68,7.08l16.42,6.32c-2.78,3.46-5.43,6.36-7.56,9.59-1.09,1.65-2.28,4.49-1.57,5.73s3.77,2.24,5.67,2c10.72-1.09,21.41-2.57,32.12-3.91.26.74.53,1.47.8,2.21-5.67,3.38-11.78,6.23-16.9,10.3-4.94,3.93-13.22,2-17.1,9.65l17.24,5.94c-3,3.62-5.89,6.7-8.23,10.15-1.1,1.62-2.18,4.69-1.4,5.77,1,1.33,4.18,2.23,5.84,1.65,10.56-3.67,21.45-2.63,33.07-1.69-5.41,3.26-10.68,6.82-16.29,9.69s-11.41,5-17.93,7.74c4.17,6.14,11.13,5.24,16.84,8.62-2.75,3.49-5.72,6.77-8.07,10.44a8,8,0,0,0-.89,6c.29.91,3.66,1.79,5.08,1.24,10.83-4.19,22.2-2.16,33.57-2.93-10.19,7.92-21.2,14.28-34.78,17.87,4.87,6.82,12.09,5.74,16.7,9.36-1.39,6.27-11,9.13-8.45,17.27l37.25-3.24c.25.69.49,1.39.73,2.09-5.49,3.18-11.5,5.73-16.33,9.7-5,4.14-13.49,1.77-17.1,9.86l16.85,6.16L3480.54,2685c.68,5.07,3.9,4.79,7.43,3.8,6.72-1.9,13.37-4.17,20.19-5.61,2.54-.54,6.58-.17,8,1.47,5.4,6.1,11.28,5.92,18,3.27,2.39-.93,5.05-1.2,7.82-1.82l5,8.4c10.48-2.91,20.72-5.67,30.9-8.63,3.53-1,6.74-2.49,10.44,0,1.35.91,4,.86,5.66.18,13.71-5.68,28.06-.61,41.95-2.7.13,0,.35.46,1,1.42-2.8,1.56-5.66,3-8.31,4.68-4.69,3-9.2,6.33-13.87,9.4a22.81,22.81,0,0,1-5.26,2.66c-6.45,2.13-12.9,3-18.09,9.1-2.87,3.37-10.5,3.62-16,3.68-20.32.25-40.65-.48-61-.25-22,.24-43.94,1.1-65.9,1.77-2.65.08-5.28.84-7.93,1-5.41.25-8.76,2.6-8.58,9.25-12.26-.64-23.88-.9-35.43-1.91-34.79-3-69.56-6.35-104.34-9.52-30.47-2.77-61-5.29-91.41-8.28-30.12-3-60.18-6.49-90.29-9.57-19.52-2-39.09-3.45-58.61-5.46-20.51-2.11-41-4.66-61.48-6.88-19.51-2.11-39-4-58.55-6.07-20.51-2.19-41-4.66-61.5-6.68-18.87-1.86-37.75-4.07-56.67-4.72-23.93-.81-47.91-.72-71.84,0-18.94.53-37.85,2.37-56.75,3.93-13.26,1.09-26.48,2.7-39.72,4-4.25.42-8.52.67-14,1.1.71-3.37,1.21-5.76,1.73-8.15,2.87-13.28,6.53-26.45,8.41-39.87s-1.37-15.54-14.19-12c-5.44,1.5-10.92,2.84-16.41,4.13-9.9,2.34-19.58,2.82-29.23-1.75-7-3.34-14.53-3.67-22.41-2.07-9.16,1.85-17.54-.72-24.93-6.9a202.21,202.21,0,0,0-22.22-16.75c-7.25-4.54-11.19-9.89-10.32-18.7a234.33,234.33,0,0,0,1.18-23.84,56.6,56.6,0,0,0-2-14.71c-2-7-6.69-8.88-13-5.36-11,6.15-21.85,12.55-32.71,18.94-.74.43-1,1.63-2.1,3.45,2.58,2.6,5.32,5.29,8,8.07,3,3.11,6.36,6,8.69,9.52,5.19,7.92,3.56,15.28-3.95,20.87-10.12,7.54-20.12,15.24-30.39,22.56-3.91,2.79-8.43,4.71-13.56,7.52-.85-5.18-1.74-8.73-2-12.33-.83-13.26-1.19-26.55-2.29-39.78a33.61,33.61,0,0,0-3.84-13.22c-6.28-11.36-12.39-22.68-16.18-35.22-1.26-4.19-4.43-8.15-7.61-11.34-14.08-14.12-28.55-27.86-42.73-41.88-5.91-5.84-11.31-12.21-17.22-18.05a97.19,97.19,0,0,0-12.85-11c-5.43-3.75-10.68-3.62-13.8-.63-2.8,2.69-4.49,10.87-2.13,14.86a48.82,48.82,0,0,0,9.19,11.56c6,5.38,11.1,11.08,14.77,18.49,5.77,11.66,15.91,19.36,26.82,26.07a148.34,148.34,0,0,1,31.27,25.8l-18.85,1.88c-3.44,14.81,4.66,28.81,2.83,44.14-9.3-3.35-11.79-10.6-14-18.28-2-7-4.26-13.94-6.91-20.71-3-7.75-8.83-13.19-16.24-16.85-6.26-3.08-12.47-6.31-18.9-9-11.67-4.84-21.21-12.4-29.38-21.82a48.65,48.65,0,0,1-10.8-20c-3.27-12.6-19.3-18.69-30.27-12q-10.63,6.51-21.45,12.71c-5.54,3.16-11.35,3.27-17.26.85-6.16-2.51-12.31-5-18.55-7.33-9-3.32-12.75-2-16.68,6.77a91.82,91.82,0,0,0-6,17.88c-1.65,7.59-6.28,10.55-13.41,10.46-8.87-.12-16.14,2.7-21.88,9.8-2.89,3.58-6.91,6.23-10.21,9.51-11.21,11.08-11.25,11.53-4.31,26.33-1.75,1.53-3.62,3.27-5.59,4.87-3.61,2.94-7.85,5.31-10.83,8.78-14,16.29-32,16.55-50.94,13.43-4-.65-6.46.72-8.44,3.67-3.12,4.65-6.07,9.41-9.85,15.3-3.24-5.8-6.53-10.66-8.79-15.95-3.39-8-9.7-11.48-17.44-10.5-12.15,1.53-19.58-2.89-23.62-14.22-1-2.75-3.24-5-4.82-7.56-4.91-7.9-4.89-14.21,1.65-20.8,7.52-7.58,9.34-15.79,7.91-26.25-1.38-10.12-.92-20.61-.26-30.86.85-13.12,5.47-17.57,18.28-16.81,14.51.86,28.91,3.25,43.4,4.6,13.88,1.28,27.8,2.08,41.7,3.11,4.51.33,7.6-1.78,9.81-5.54a72.39,72.39,0,0,0,9.87-42.07c-.48-7.49-5.95-12.43-11.52-16.76-3.93-3.06-8.34-5.49-12.47-8.29-6.73-4.57-7.49-10.12-1.89-15.48a122.44,122.44,0,0,1,12.81-11.08c10.41-7.49,12.71-11.5,13.43-26.26-5.49-3.8-12.13-5.64-18.49-4-5.78,1.46-10.92,5.44-17.93,9.15l1.82-12.19c-9.47-4.1-21.18,1.55-31.08-6.59,12.83-17.85,29.57-31.07,48.64-44-3.43-3-5.67-5.83-8.58-7.38-7.33-3.91-15.28-6.74-22.37-11a51.56,51.56,0,0,1-14.15-12.12c-4.86-6.24-8.56-13.46-12.17-20.55a30,30,0,0,1-3.09-11.38c-.67-10.16,3.77-13.54,13.36-9.94,6.64,2.49,11.53,1.27,15.81-4.19a38.64,38.64,0,0,1,5.69-5.6c4.79-4,10-5.21,15.57-1.55,7.48,4.93,16,5.86,24.59,7.1,5.53.8,11.24,1.81,16.3,4,6,2.64,6.72,7,2.52,12-3.39,4.07-7.5,7.55-11.34,11.24-2.15,2.07-4.47,4-6.6,6.08-2.75,2.71-3,5.76-.91,9,6.79,10.66,13.33,21.49,20.45,31.93a43,43,0,0,0,9.87,9.72,57.32,57.32,0,0,1,19.18,25c3.61,8.92,10.14,15.42,17.86,20.75,5.38,3.71,13.6,2.19,19.4-4.77,5.47-6.55,12.41-10.05,20-12.41a301.32,301.32,0,0,1,29.93-7.57c13.06-2.64,16.89-7.09,15.88-20.37-.23-3-.33-6.17-1.53-8.78-5.26-11.49-.41-21.65,4.38-31.41,3.56-7.25,21.66-12.1,28.87-8.58a6.59,6.59,0,0,1,3.32,4.34c.31,2.89-.44,5.89-.74,8.84-1.21,12.1-2.49,24.2-3.56,36.31-.14,1.54.79,3.17,1.49,5.72,5.9-1.27,11.83-2,17.34-4,2.32-.82,4.64-3.85,5.44-6.36,1.78-5.6,2.59-11.51,3.93-17.9-4.66-3.25-7.17-8.21-5-13.58,2.65-6.57.46-12.47-.87-18.49-2.23-10-5-19.93-7.59-29.87-1.17-4.52-5.05-6.5-9.1-3.45-5.22,3.94-11.25,8.3-13.85,13.9-4.33,9.35-11.62,10-19.67,10a53.83,53.83,0,0,1-12.81-1.89c-13.93-3.44-24.49-21-22.8-35.46.7-6-.56-12.65-2.67-18.36-4.2-11.41-1.49-20.38,6.3-29.16,10.85-12.21,21.3-24.76,36.42-32,4.17-2,8.57-4,13.08-4.77,18.94-3.41,36.29-11,52.68-20.54,15.16-8.85,29.63-19,38.62-34.71,4.95-8.6,12.1-13.66,20.69-17.86,6.47-3.17,12.36-7.57,18.41-11.57a108.89,108.89,0,0,1,22.82-11.89c19-6.92,38.39-13.2,55-25.39a57,57,0,0,1,9.46-5.55c9.2-4.34,9.7-4.06,16.14,4.28,2.68,3.46,6.15,5.34,10.62,6.66,13.33,4,26.46,8.68,39.49,13.56,5.19,1.94,6.62,6.08,4.6,11.31-1.19,3.06-3.25,5.78-4.81,8.72-3.22,6.07-2.58,8.65,3.19,12.43a46.59,46.59,0,0,0,6.14,3.33c8.26,3.78,9.73,7.24,6.85,17.93a17.93,17.93,0,0,1-1.2,2.74c-4.22,9-3,12.2,5.92,15.94,6.58,2.77,12.94,2.23,16.71.29,5.43-8.8,9.13-15.74,13.81-21.93a15.19,15.19,0,0,1,9.15-5.2c13.55-1.91,27.21-3.06,40.2,3a10.43,10.43,0,0,0,10.35-.19c2.95-1.6,6.73-1.92,10.2-2.24a70.07,70.07,0,0,1,13-.22c6.56.6,13.63.46,19.46,3,11,4.78,21.28,4,31.84-.38,4.29-1.79,8.61-3.53,12.87-5.39,4.77-2.07,8.71-.13,11.74,3.12,5.7,6.11,4.16,13.85,3,20.9-1.1,6.33-6.74,8.9-12.61,9.67a31.14,31.14,0,0,1-10.88-.59c-13.76-3.19-25.51,2.7-37.3,8-4.35,2-5.28,6.45-5.1,11.11.18,4.47,2.89,6.65,6.69,7.55a81.17,81.17,0,0,0,11.63,1.74c7.25.63,14.71.14,21.7,1.77a24.59,24.59,0,0,0,17.22-1.95c5.08-2.41,10.46-4.22,15.73-6.22,4.32-1.64,7,.07,8.5,4.24,1.12,3.12,2,6.48,3.76,9.17,1.29,1.93,4.82,4.55,5.87,4a10.28,10.28,0,0,0,4.63-6.44c.62-3.11-.06-6.59-.64-9.83-1.27-7.19-3.31-14.28-4.17-21.52-1.47-12.34,2.11-16.4,14.45-17.5,2.64-.24,5.53-.71,7.94.05a29,29,0,0,0,19.47-.58c4.21-1.56,7.63.56,11,3.13,6.84,5.28,13.84,10.37,20.83,15.44,8.36,6.06,9.74,6.08,17.51-1.25,4.25-4,9.06-4.24,13.93-2.7a28.23,28.23,0,0,0,17.6-.27c5.61-1.76,11.06-1.83,15.89,2.64,1.62,1.5,4.2,1.94,6.25,3,5.86,3.1,11,3.95,15.45-2.67,2.66-4,7.27-4.42,11.78-3.4,9.88,2.25,19.66,3,29.4-.84,4.82-1.88,8.25,1.39,11.68,4,10.43,7.88,15.35,7.71,25.14-1a27.4,27.4,0,0,0,3.57-3.49c9.54-12.47,22-13.23,35.75-9.06-2.07-8.85-45.27-69.82-58.28-82.42-5.27,3.36-10.52,6.5-15.55,10-4.07,2.81-8.37,5.56-11.68,9.16-5.29,5.74-4.42,12.08,1.49,17.12q10.49,8.94,6.15,19.22a17.52,17.52,0,0,1-18.76,10.39c-7.08-1.16-14.48-3.27-20.56-6.92-11.21-6.74-22.58-12.6-35.2-16.22-10.73-3.08-10.18-6.31-5.4-15.31,3.08-5.79,8.39-9.24,14.33-11.9,15.18-6.8,30.46-13.43,45.34-20.83,8.23-4.09,15.76-9.58,24.84-15.21q-185.84-231.57-441.75-379.31c-197.28-113.53-409.52-180-635.9-201.28-.42.68-.84,1.36-1.27,2,5.85,5.08,12,9.83,17.44,15.32s10.29,11.92,16.34,19c-3.64.79-5.42,1.5-7.22,1.52-23.32.34-46.64.48-70,.86q-76.9,1.23-153.81,2.65c-43.28.82-86.56,1.84-129.83,2.75q-69.39,1.45-138.76,2.9c-4.45.1-8.89.72-15.77,1.31l13.12-20c-4.5.42-7.56.4-10.48,1a1497.38,1497.38,0,0,0-146.36,39.46,1548.23,1548.23,0,0,0-228.41,94.5c-83.24,42.5-162.42,91.57-236.34,148.8-31,24-60.78,49.78-91.13,74.72-1.78,1.47-3.74,2.72-7.45,5.39,10.06,3.5,17.53,6.73,25.32,8.66,11.47,2.84,20.26,9.57,28.78,17.17,8.93,8,18,15.77,27.3,23.31,7.49,6.1,7.68,6.27.62,14.19-5.5-2.55-10.83-5.27-16.34-7.52-5.94-2.43-11.21-5.38-15.17-10.8-4.53-6.21-11.93-8.78-18.84-10.52-15.91-4-29.19-12.52-43.27-22.75-6.94,6.6-14.16,13.35-21.19,20.28-1,1-1.35,2.93-1.78,4.48-3,10.46-9.32,17.32-20.26,19.5-1.56.32-3.43.64-4.49,1.65-5.91,5.66-11.62,11.54-18.13,18.08,7.21,2.85,13-.16,18.76-.13q9.87.06,19.76.45c5.82.21,9.14,4.1,10.9,8.93a91.84,91.84,0,0,1,3.69,15.46c.32,1.79,0,4.46-1.09,5.59-6.08,6.06-12,12.47-19,17.39s-12.26,3.26-16.72-4.07c-2.39-3.92-3.75-8.48-5.35-12.83-1-2.77-1.6-5.68-2.6-9.34l-30.19,1.55-21,22.43c5.88.94,9.93,1.38,13.88,2.27,4.83,1.08,9.91,1.89,14.29,4,6.33,3.07,7.16,8.14,3.31,14.11a24.38,24.38,0,0,1-16.25,10.75c-7.09,1.38-14.44,1.56-21.7,2a65.25,65.25,0,0,1-10-.38c-10.14-.93-17.13,3.29-21.3,13,2.29,5.09,6.49,7.76,12.22,8.2,5,.37,10,.53,14.92,1,20.21,1.72,40.42,3.36,60.6,5.39,3.85.38,7.67,2.07,11.27,3.69,12.76,5.72,25.83,8.69,39.84,5.78a27.25,27.25,0,0,1,6.88-.25c13.58.75,19.94-7.3,15.71-20-.32-1-.86-1.82-1.14-2.77-1.14-3.85.65-6.48,4.32-5.68,12.82,2.79,24.2-3.15,36.16-5.38,9.63-1.79,11.88-5.93,10.44-16.23a12.61,12.61,0,0,1,.25-2.87c15.44-5.11,14.17-12.84,8.52-24.8,4.41-1.49,8.69-3.43,13.17-4.36,9.22-1.91,15.88,3.2,16.21,12.52.27,7.63,0,15.3-.46,22.94-.27,4.91-.07,8.61,5.23,11.58,3.13,1.75,5.82,6.73,6.18,10.49.88,9.15.28,18.45.28,27.86,5.79,2.54,11.36,1.11,15.59-4.47,1.4-1.85,2.21-4.14,3.63-6,4.14-5.28,8.66-6.56,14.83-3.49s12.07,6.87,18.86,10.79c-1.79,2.4-2.84,4.36-4.39,5.79q-6.54,6.09-13.44,11.78a32.12,32.12,0,0,1-6.46,4c-3,1.47-5.28,3.66-4,7,.81,2.13,3.16,5,5,5.16,5.88.42,10.72,4.82,15.67,5.14,9.88.65,20.13-.66,29.86-2.79,5.32-1.17,6.25-7.35,5.73-12.62-.49-4.86-1.39-9.67-2.34-16.07,3.5.54,6.06.45,8.18,1.35,12,5.1,23.79,6.52,36.83,3.23,10.71-2.7,22.11-5.59,33.26-.18,5.31,2.58,9.74-.11,13.38-3.68a36.21,36.21,0,0,0,5.8-8.08c8.06-14.18-3.12-21.61-13.37-22.79C994.41,1936.23,990.75,1936.58,986.29,1936.58ZM234,2060.25c4.95-.43,9.28,6.38,16.24.78-10.28-4.5-19.06-9.18-29.41-11.17.17,1.79,0,2.57.32,3,.95,1.33,2.09,2.52,3.16,3.77l-6.74.49-.47,2,9.59,5.51c-3.87.27-7.86-2.85-13.31,1l19.24,9c-7.05,1-12.69-6.17-22.13-3.54l8.42,5.59H208.7l3.51,5.9-7.8,1.46,14,8.46c-4.92.5-9.28-5-15.11-1.89,8.09,6.86,23.05,12.53,30.27,11.3l-5.52-5.71,8.74.41-4.83-6.35h6.43c-1-2.58-1.66-4.28-2.33-6l5.56-1.89-6.87-7.82c2.58,2,5.19,3.22,9.11.37l-15.19-10.42c5.46,2.28,10.36,6.56,17.41,5.38C244.48,2062.94,236.83,2064.65,234,2060.25Zm-32.41,60c5.25,1.83,10.46,3.81,15.78,5.41,1.76.53,3.81.09,6.81.09-8.16-7.59-22.88-13.06-30.05-11.31,2.87,2.23,5.34,4.16,7.83,6.08l-10.17-1.18c2.63,6.8,8.8,6.5,12.74,9.33l-14.89-3-1.94,2.93,6.47,3.95-7.08.53-.39,2c8.53,5.3,17.9,8.62,29.1,12.09-1.05-3.54-1.55-5.25-2.05-6.95l5-2.47-12-9.19c4.48,1.35,8.33,6.12,15.88,2.26Zm47.8-98.07,14.39,3.87.31-5.73,4.21-3.45-10.4-6.47,12.45,2.58-2.68-6.63,7.15-2-13.24-8c4.62-.48,8.54,5.16,13.47,2.17.06-1,.2-1.49.08-1.56q-9.3-5.15-18.66-10.24c5.24,1.83,10.43,3.8,15.74,5.41,1.74.52,3.77.08,7.06.08-9.31-8-23.84-13.35-30.23-11.46l7.77,6.24-9.17-1.4-1,2.43,11.34,6.84c-4.33-1.54-8.61-3.49-14.56-2.07,2.07,2.63,3.38,4.27,4.68,5.92h-7.63l3.67,6-7.15,1.88,9.69,6.5L236.58,2012l-.69,2.4,13.88,8.08c-5.54.29-10.13-5.74-16.74-3,7.63,6.8,21.88,12.46,29,11.52C259.59,2025.17,252.74,2026.06,249.42,2022.16ZM210.1,2154.38l3.13-3.44c-8.73-6.75-22.34-11.6-30.29-10l9.93,6c-3.83-.67-7.73-2.29-12.57.94l15.91,8.72-18.41-5.1c5.82,7.18,18.9,13,29.83,14.17l-1.68-5.43C209.66,2159.93,210.53,2157.61,210.1,2154.38Zm1717.57-966c-1.61,3.39-2.31,4.23-2.38,5.12-2,22.56-4,45.1-5.62,67.68a29.6,29.6,0,0,0,2.18,12.54c3.56,9,8.07,17.55,11.73,26.48,2.21,5.37,5.73,7.4,11.41,7.73,11,.64,21.89,1.94,32.83,3,32.83,3.06,65.66,6.17,98.5,9.07,3.45.31,7.82.51,10.31-1.27,3.22-2.29,6.07-2.17,9.32-1.89,7.3.63,14.59,1.35,21.88,2l30.09,2.8c.71-3.56,1.42-6.09,1.69-8.67,1-8.93,1.74-17.89,2.65-26.83q8.47-83.48,16.92-166.94c.32-3.12.05-6.3.05-10.81-11.58,3.07-22.9-.94-31,6-6.07-.49-11.27-1.6-16.36-1.19-23.9,1.88-47.78,4.14-71.66,6.36-17.24,1.61-34.47,3.39-51.71,5.07-12.14,1.19-12.08,1.17-12.24,13.89-.09,6.65.07,13.37-.76,20-4.35,34.43-13.5,67.69-25.14,100.31-.91,2.53-2.36,4.86-4.5,9.19C1946.87,1240.55,1938.63,1215.25,1927.67,1188.41ZM1787.79,870.3c-.56-4.21-.78-5.81-1-7.4-5.45-41.53-11.26-83-16.17-124.62-1.65-13.92-2.87-27.7-9.24-40.45-.22-.44.17-1.19.27-1.79l3.88-1.65c0-11.56.06-22.18,0-32.79-.12-18-.24-35.91-.58-53.87-.06-2.8-.48-7.17-2.17-8.06-4.87-2.54-10.64-5.41-15.74-4.92-7,.67-13.71,4.31-20.64,6.71.42,6.66,1,12.24,1.09,17.83a1354.84,1354.84,0,0,1-13.38,211.84c-.53,3.79-.07,7.72-.07,11.86C1739.83,847.79,1763.92,855.81,1787.79,870.3Zm1101.43,896.13c1.72-1.15,2.71-1.56,3.33-2.28,17.13-19.91,34.33-39.77,51.28-59.84,7.25-8.58,11.14-18.75,12.61-29.93a41.45,41.45,0,0,0-47.93-46.6,55.3,55.3,0,0,0-34.06,19.14c-16.25,18.92-32.25,38-48.31,57.13a28.17,28.17,0,0,0-2.47,4.32ZM1373.71,1384.92c-22.3-38.37-65.19-57.1-113-39.19-38.06,14.27-66.42,61.78-57.69,95.35Zm295-124.69c33.17-26.47,60.59-56.6,85.2-90.14-2.61-2.09-4.26-3.74-6.2-4.9-29.22-17.37-60.08-31.24-92-42.88-2.34-.85-5-.72-8-1.1-2.53,7.58-4.64,14.56-7.21,21.37-1.86,5-1.37,9.35.21,14.43q10.05,32.28,19,64.9C1663.06,1234,1665.48,1246.29,1668.71,1260.23Zm99.5-110.66c2.47-3.46,4-4.9,4.67-6.67,3.16-8.67,6.35-17.35,9-26.17,7.15-23.76,15.94-47.16,15.76-72.56,0-2.66,1.82-5.4,3.06-8,1.83-3.82,4.27-7.47,2-13.16-39.31,14.75-77.76,30.39-116.63,52C1726.21,1087,1748.88,1115.51,1768.21,1149.57ZM3530,2216.42c15.31-.73,30.61-8.11,41-24.15,12.18-18.73,7.81-42-10.53-54.67-16.62-11.52-34.34-11.42-52-2.75-13.56,6.63-22.72,17.43-25.92,32.35C3477,2193.11,3497.88,2216.24,3530,2216.42ZM1646.22,898.25c-16.79,41.08-34.74,114.35-31.81,128.64.59-.18,1.44-.17,1.72-.56,12.72-18,29.92-30,50.52-37.22,4.83-1.68,6.93-4.5,7.82-9.11,1.76-9.13,3.78-18.21,5.53-27.35,2.42-12.63,4.7-25.29,7.18-38.68ZM1765,1186.84l-2.26-1.08c-1.89,2.56-3.9,5-5.67,7.7-5,7.45-9.18,15.54-14.94,22.32q-16.38,19.29-34.27,37.29a175.83,175.83,0,0,1-23.34,19.41c-11.35,8-12.89,11.66-8.15,26.33h33.5c.49-1.86.8-3.12,1.15-4.36.42-1.52.89-3,1.48-5l38.7,2.24C1755.89,1255.75,1760.43,1221.29,1765,1186.84ZM377.62,2175.64c9.14-12.56,37.26-63.39,38.58-70.06-24-10-48.18-11-72.22-.53-11.25,4.89-14.38,14.11-10.16,25.68s11.93,20.69,20.8,28.83C361.4,2165.79,368,2172.4,377.62,2175.64Zm80.46-132.09c-6.7-3-12-5.79-17.53-7.7-17.14-5.88-34.64-6.55-51.94-1.17-14.35,4.46-18,13.94-10.76,27,8.62,15.54,21.35,27,37.17,35,2.24,1.13,4.86,1.53,7.51,2.33Zm822.4-804.79c-9-19.89-17.83-39.24-26.5-58.65-1.9-4.25-4.72-4.91-8.88-3.75-6.09,1.7-12.23,3.32-18.45,4.42-5.33.94-7.27,3.75-7.05,8.93.83,19.94,1.52,39.9,2.33,59.84a8.66,8.66,0,0,0,1,2.64C1236,1254.31,1266.92,1247.32,1280.48,1238.76ZM1799.16,959l.39-1.43c-11-4.42-22-8.9-33.1-13.24-10.81-4.24-21.55-8.72-32.55-12.42s-21.49-10-33.3-11.47c-5,12.9-13.06,55.69-11.55,62.72,18.13-5.38,35.94-11.76,54.27-15.79S1780.53,961.71,1799.16,959Zm-211.58,178.37c-11.19,27.62-26,54.18-35.74,84.77,9.88-3.41,10.94-12.8,17.74-16.72,4.36.92,8.9,1.86,13.44,2.85s9.07,2.11,13.62,3.07c8.48,1.78,8.74,1.67,11.82-6.16,1.94-5,3.27-10.18,5.61-14.93,5.59-11.36,6.14-22.76,2-34.66-3.19-9.18-5.92-18.53-9.28-29.11-4.13,3-6.64,5.06-9.44,6.64S1591.59,1135.68,1587.58,1137.39Zm446.51-87.73c-12.75-14-97.23-44.29-121-45.62,7.68,6.33,14.48,11.42,20.66,17.18a228.38,228.38,0,0,1,17,18c5.45,6.34,10.4,13.13,16.59,21,1.25-5.37,2-8.78,3-12.74l7.53,4.89,6.16-14.11c3,3.6-.58,10.66,7.15,10.83.69-.84,1.61-2.11,2.69-3.22s2.14-1.8,4.35-3.61c.29,4.94.5,8.33.78,13.09ZM374.37,2183.26c-17.82-2.79-33.41-3.37-48.81,1.93a23.38,23.38,0,0,0-6.85,3.95c-5.12,4.14-7.24,9.53-4.93,15.91,5.67,15.66,17.49,25.88,31,36.15ZM542.5,1773c1.09,2.11,2.26,7.19,5.44,10,10.39,9.25,21.23,18.08,32.47,26.28,6.26,4.58,8.6,3.57,13.38-2.3,1.88-2.31,3.63-4.74,5.45-7.11,6.59-8.58,6.76-10.41-1-17.3-8.71-7.69-17.79-15-27-22a29.06,29.06,0,0,0-10.75-4.9C551.11,1753.49,542.21,1761.14,542.5,1773Zm-27.45,38.27c1.55,2.58,3.48,8.27,7.36,11.83a355,355,0,0,0,28.75,23.2c7.36,5.46,9.06,4.87,14.61-2.31q3.36-4.35,6.58-8.8c5-7,5.26-8.88-1-14.24-9.6-8.23-19.47-16.2-29.7-23.61-3.26-2.35-8-3.49-12.15-3.59C521.13,1793.59,515,1800.35,515.05,1811.3Zm76.61-93c-14.52-.53-21.84,9.32-17.52,20.49a20.94,20.94,0,0,0,5.38,8.22c9.58,8.19,19.27,16.3,29.4,23.81,7.4,5.5,9.13,4.87,14.82-2,1.9-2.3,3.73-4.67,5.59-7,6.57-8.27,6.62-10.54-1.16-17.2-8.82-7.57-17.86-14.91-27.15-21.89C597.72,1720.15,593.4,1719,591.66,1718.26ZM489.45,1845.2c.77,1.83,1.35,6,3.73,8.33,10.18,10,20.49,19.93,31.58,28.87,6.56,5.29,9.71,3.95,14.84-2.87,1.6-2.12,3.12-4.31,4.68-6.46,6-8.28,5.89-10.62-1.53-17.68-7.22-6.88-14.37-13.9-22.15-20.11a32.93,32.93,0,0,0-14-6.78C497.23,1826.81,489.23,1834.39,489.45,1845.2ZM256.11,2094.09c-1.52,12.43,10.69,24.68,23.25,24.75,14.37.07,26.15-9.86,26-27.63-.11-10.15-13-23.18-23.46-22.91C265.61,2068.74,254.92,2081.76,256.11,2094.09Zm392.58-356.8c5.14-6.06,10.16-11.74,14.91-17.64,3.9-4.85,3.95-6.61-1-10.86-9.58-8.24-19.39-16.23-29.46-23.86a21,21,0,0,0-10.18-3.55c-12.21-1.26-20.19,9.77-15.23,21a25.46,25.46,0,0,0,6.34,8.79c8.8,7.61,17.92,14.86,27.06,22.08C643.13,1734.83,645.68,1735.71,648.69,1737.29Zm50.44-59.21c-5-7-30.1-28.71-36-31.58-8-3.88-16.14-2.72-21,3a16,16,0,0,0,1.54,21.76c9.81,9.35,20.59,17.69,31.07,26.33,2.62,2.15,5.53,2.12,7.95-.64C688.11,1690.74,693.52,1684.52,699.13,1678.08Zm33.79-37.82c-11.89-12-23.65-22-36.68-30.53a15.37,15.37,0,0,0-5.61-1.87c-12.29-2.19-21.08,7.73-16.69,19.42,1.55,4.13,4.73,8,8.06,11,7.61,6.88,15.73,13.22,23.76,19.62,2,1.58,4.44,2.56,7.3,4.17ZM763.5,1608c-1.18-1.88-1.77-3.56-2.94-4.56-9.82-8.41-19.61-16.84-29.72-24.89a20.32,20.32,0,0,0-9.1-3.65c-11.94-2-20.85,9.1-16,20.11a35.27,35.27,0,0,0,8.3,10.91c6,5.65,12.61,10.76,19,16,3,2.45,6.26,4.64,10.1,7.47C750.27,1621.93,756.8,1615,763.5,1608Zm26.63-28.27c-12-10.26-24.11-20.47-38.1-28-6.64-3.56-13.63-1.82-17.31,2.69s-3,11.09,1.55,17.45a10.82,10.82,0,0,0,1.9,2.28c10.89,8.49,21.82,16.93,33.49,26ZM590,1643.22c-11.2-8.78-21.52-17.06-32.09-25-2-1.49-4.94-2.14-7.51-2.34a13.21,13.21,0,0,0-13.69,17.87,18.4,18.4,0,0,0,4.62,7.56c9.45,8.28,19.23,16.21,29.71,25ZM1791,780.84a8,8,0,0,0-.68,2.76q6.63,48.3,13.43,96.58a11.59,11.59,0,0,0,2.21,5.42c6.36,7.94,12.92,15.72,20.65,25C1816.32,865.79,1809.75,821.81,1791,780.84Zm-1258.15,936c-10.59-10.12-20.8-19.9-33.39-26.57a12.88,12.88,0,0,0-16.91,3.83c-3.48,4.77-3.2,10.86,1,16.56a33,33,0,0,0,5.52,5.68C496,1722,503,1727.61,510,1733.07c2.23,1.73,4.93,2.84,8,4.57ZM507,1754.31c-10.13-9.7-20.12-18.34-31.39-25.25-6.82-4.17-13.83-2.52-18,2.75s-3.56,12,1.46,18.26a29.39,29.39,0,0,0,4.22,4.2c7,5.64,13.92,11.29,21,16.75,2.26,1.74,4.95,2.93,8.39,4.92Zm-55.72,90.26c4-6.75,7.53-12.66,11.08-18.57,1.8-3,1.41-5.49-1.25-7.89-6.64-6-13-12.27-19.81-18a27.75,27.75,0,0,0-9.54-5c-5.15-1.59-9.83,0-13.42,4.11-3.74,4.26-3.64,9.13-1.44,13.92a21.79,21.79,0,0,0,4.56,6.41c7.13,6.9,14.37,13.69,21.78,20.29C445.31,1841.67,448.1,1842.73,451.28,1844.57Zm92-142.22,16.55-21.95c-10.37-9.43-20-18-31-24.77-2.36-1.43-5.78-1.76-8.65-1.58a12.12,12.12,0,0,0-10.85,16.44c1,2.75,2.47,5.73,4.61,7.58C523.2,1686.08,532.79,1693.72,543.31,1702.35ZM653.73,1576c-11.12-9.11-21.11-17.32-31.16-25.46a13.41,13.41,0,0,0-3.52-1.84c-6-2.39-11.94-1.21-15.55,3a12.42,12.42,0,0,0,.38,16.54c8.74,10,19.84,17.32,30.39,26.25ZM485.67,1787.25c-9.86-7.73-18.63-14.7-27.54-21.5a16.8,16.8,0,0,0-5.48-2.29c-5.3-1.54-9.86,0-13.53,4-3.85,4.12-4.17,9.19-1.79,13.87a31.86,31.86,0,0,0,7.43,9.14c6.21,5.47,12.77,10.56,19.32,15.61,2,1.53,4.43,2.43,7.45,4Zm1185.89-511.14c7.12-5.68,14.84-7.25,18.72-14.59,1.08-2.06,4.28-3,6.42-4.51a39.17,39.17,0,0,0,6.18-4.94c10.58-11.68,21.41-23.17,31.41-35.34,9.61-11.7,18.32-24.15,27.28-36.08l-4.12-8.79c-2.49,3.47-4.33,5.93-6.06,8.45-3.08,4.49-5.76,9.3-9.23,13.45-3.3,4-8.15,6.73-11,10.93a72.64,72.64,0,0,1-12.5,14.3c-8,7.06-14.48,15.84-22.69,23-4.08,3.53-5.5,9.88-12.4,10.6-1.74.18-3.21,3.08-4.78,4.75-2.41,2.57-4.79,5.16-8.15,8.78C1670.83,1267.88,1671.12,1271.21,1671.56,1276.11ZM622.07,1607.33c-9.63-7.93-18.24-15-26.92-22.1a16.37,16.37,0,0,0-4.31-2.44c-6-2.41-13-1.09-16.54,3-4.11,4.78-4.53,11.54.28,17.32,8,9.66,18.58,16.48,28.69,24.93ZM208.6,2660.25l-116.16,2.52c-.74,3.9-1.33,7-2.19,11.52,4.37,0,7.59.12,10.81,0q33.36-1.42,66.72-3c11.29-.54,22.56-1.32,33.84-1.85C206.22,2669.24,209.4,2667.93,208.6,2660.25ZM665.56,1565l20-17.26c-11.22-9.15-21-17.67-31.34-25.34-6.79-5-13.71-4.12-18.05.87s-4,12.9,2.35,18.76C647,1549.89,656.13,1557.05,665.56,1565Zm49.61-39.9c-11.58-9.48-21.54-18.19-32.13-26-6.15-4.58-13.27-3.55-17.29,1s-4.08,11.88,1.39,17.19c8.5,8.25,17.89,15.6,27.14,23.54Zm2368.16,459.26c7.4-8.49,14.29-15.54,20.14-23.36,4.13-5.53,2.71-12.87-1.86-17.3a13.37,13.37,0,0,0-18.15-.69c-6.15,5.37-11.39,11.77-17.61,18.34C3071.71,1969.07,3077,1976,3083.33,1984.36ZM812.84,1559.86c-11.49-8.37-22.15-16.69-33.39-24.11-6.91-4.56-13.47-3.74-16.27.4-2.5,3.71-1.49,10,4.32,15,9.43,8.2,19.66,15.48,29.75,23.3,3.52-2.91,6.14-4.89,8.54-7.11C807.92,1565.38,809.79,1563.13,812.84,1559.86ZM2638.31,1028.4c4.47-5,14.87-26.42,15.54-31.47a12.42,12.42,0,0,0-7.89-13.46c-5.24-2-11.2-.75-13.91,4.45-5,9.56-9.07,19.6-13.83,30.14ZM899.2,1596.81c-13.07-8.48-24.22-18.86-38.7-24.26a16.4,16.4,0,0,0-4.87-.91c-6.46-.31-9.75,3.76-6.77,9.39a44.84,44.84,0,0,0,9.79,12.27c5.17,4.59,11.15,8.27,16.84,12.27,9.65,6.79,10.49,6.71,18.78-2.17C895.79,1601.76,897,1599.8,899.2,1596.81Zm-83,60.86c-8.73-9.56-17-14.88-24.9-16.12-12.3-1.94-19.42,6.24-15.23,17.94,3.1,8.68,9.12,15,17.95,19.66ZM96.73,2645.39c38.19-2.51,75.57-4.94,112.94-7.49,1.4-.1,2.72-1.31,4.34-2.14-2.17-4-5.44-3.13-8.19-3.1q-28.41.33-56.82.9c-15,.3-29.91.67-44.85,1.21C97.57,2635,97.58,2635.23,96.73,2645.39ZM850.81,1635.45c-8.8-6-15.72-11.11-23.06-15.54a30,30,0,0,0-11.24-3.81c-8.7-1.22-13.34,4.94-10,13,3.76,9,11,14.89,19.14,19.69,1.58.94,4.77.74,6.39-.26C837.92,1644.86,843.44,1640.65,850.81,1635.45Zm26.2-20.77c-8.3-6-16.44-12.14-24.92-17.78-3.52-2.34-7.71-3.71-11.7-5.26-3.57-1.39-7.34-1.79-9.92,1.76s-1.05,7.36,1.35,10c4.82,5.37,9.8,10.78,15.49,15.16,14.63,11.23,14.81,11,28.79-1.34C876.32,1617.07,876.33,1616.66,877,1614.68Zm1575.46-219.43c1.54-2.74,2.81-4.63,3.72-6.68q7.7-17.35,15.21-34.77c3.25-7.54,2.5-11.61-2.3-13.69-4.23-1.83-7.72.38-10.89,7.5-5.56,12.46-10.95,25-16.29,37.55-.73,1.7-.82,3.67-1.3,6Zm-18.41-5.72c1.6-2.91,2.86-4.82,3.78-6.89q7.82-17.73,15.47-35.51c3-6.94,2.24-10.45-2.33-12.77-4.24-2.15-7.89-.06-11,6.94-5.13,11.48-10,23.08-14.95,34.65-1.26,3-2.33,6-3.85,9.9Zm36.68,13.67c6.73-15.37,13-29.51,19.1-43.76,2.25-5.29.94-9-3.07-10.92-3.83-1.78-7.77-.1-10.22,5.17-4.06,8.7-7.7,17.59-11.5,26.41-2.32,5.39-4.63,10.78-7.26,16.91Zm33.07,20.12c7.24-16.44,14-31.51,20.48-46.71,1.73-4.08-.64-7.23-4.29-8.91-4.16-1.92-7.29.31-9,3.92-6.51,14.12-12.78,28.36-19.38,43.09Zm548.63,521c5.41-6.55,10.47-11.69,14.31-17.62a13.22,13.22,0,0,0-2.69-17.13,13.66,13.66,0,0,0-17.39-.22c-4.29,3.43-7.85,7.76-12.29,12.25ZM2487.7,1412.22l19.43-44.16a6.2,6.2,0,0,0,.31-1c1.2-4.8-.31-8.51-4.17-9.83-4.32-1.48-6.92,1.07-9,4.3a39,39,0,0,0-2.58,5.37c-4.54,10.31-9.1,20.61-13.56,31-1,2.32-1.58,4.82-2.51,7.72Zm-18.81-96.78c6.42-14.8,12.32-28.11,18-41.53,2.38-5.67,1.3-9.27-2.6-11.11s-7.42-.16-10,5.46c-4.92,10.87-9.55,21.88-14.26,32.86-1.38,3.24-2.62,6.54-4.25,10.64Zm-390.28,41.72c-17.46-14.93-87.62-25.72-101.39-15.23ZM2473.53,1316c3.22,1.46,5,2.26,6.79,3.08,4.2,2,6.87.53,8.63-3.6,5.32-12.48,10.72-24.92,16.1-37.38,1.68-3.89,1-7.17-2.73-9.38-3.59-2.11-7.43-1-9.65,3.86C2486.17,1286.66,2480.12,1301,2473.53,1316Zm-69.47,66.06c10.68,3.7,11.52,3.71,14.32-2.53,6-13.31,11.69-26.72,17.31-40.18,2.16-5.17,1.12-8.95-2.46-10.17-4.51-1.53-7,1.55-8.53,4.9-4.18,9-8,18.2-11.93,27.34C2409.91,1368.06,2407.14,1374.75,2404.06,1382.05Zm119.16-42.54,11.61,7.83c6.71-15.31,13-29.42,19-43.65,1.59-3.74.62-7.42-3.53-9.06-4.74-1.86-7.7,1-9.46,4.87C2535,1312.42,2529.41,1325.44,2523.22,1339.51Zm-3.84-2.45c6.69-15.35,12.81-29.23,18.77-43.18,1.69-4,.28-7.34-3.48-9.18-4.18-2-6.89.58-9,3.87a32.26,32.26,0,0,0-2.15,4.47c-4.54,10.31-9.11,20.6-13.54,31-.87,2-1.15,4.29-1.84,7Zm-20.1-85.91c6.78-15.65,13.07-29.88,19.1-44.23,2-4.89.7-8.94-2.91-10-4.4-1.33-7,1.35-8.64,4.85-4.43,9.66-8.65,19.41-12.86,29.16-2.2,5.11-4.21,10.29-6.74,16.52Zm4,77.09c6.55-15.08,12.58-28.69,18.34-42.42,1.52-3.61,1.17-7.37-3-9.37s-7.43-.24-9.12,3.45c-6.33,13.8-12.35,27.74-18.86,42.5Zm12.54-72.48c6.29-14.41,12.17-27.69,17.87-41.06,3.05-7.18,2.28-11.42-1.9-12.92-3.62-1.3-6.82,1-9.83,7.78q-7.89,17.7-15.42,35.54c-.85,2-1,4.3-1.64,7Zm94.49,301.87c3.3-4.37,6.25-7.55,8.36-11.21,3.75-6.56,2.44-13.65-2.78-18.09s-12.45-4.51-18.15.74c-4.24,3.92-7.58,8.81-11.95,14Zm-84.11-368.7c6.16-14.19,12.19-27.81,18-41.52,2.07-4.92.79-8.72-2.95-10-4.44-1.53-7,1.1-8.63,4.68-4,8.79-7.73,17.68-11.57,26.53-2.33,5.38-4.63,10.77-7.31,17Zm-141,190.15c10.87,3.07,10.91,3.09,14.51-4.71,2-4.23,3.74-8.54,5.59-12.81,3.56-8.25,7.21-16.47,10.62-24.78,2.41-5.87,1.71-10.57-1.68-11.38-5.06-1.19-7,2.54-8.71,6.34-2,4.57-4.1,9.11-6.07,13.69C2394.82,1356.38,2390.2,1367.34,2385.23,1379.08Zm146.25-116.4c6.81-15.75,13.08-30,19.11-44.37,1.38-3.27,1-6.89-2.57-8.68-4.13-2.05-7.31.2-9,3.84-6.4,14.18-12.54,28.49-19.17,43.65Zm29.16,18.31c7.11-16.2,13.49-30.66,19.77-45.16,1.49-3.46.75-6.76-2.68-8.55-4.11-2.16-7.24.06-8.9,3.68-6.3,13.78-12.33,27.68-18.76,42.21Zm-14.2-10.25c6.85-15.56,13.1-29.75,19.31-44,.39-.88.86-2.12.53-2.86-1-2.26-1.94-5.45-3.75-6.19s-5.09.55-6.79,2c-1.87,1.61-2.84,4.39-3.9,6.79q-6.86,15.42-13.49,30.94a71.31,71.31,0,0,0-2.31,7.7Zm-27.32,161.7c.56-.34,1.41-.54,1.63-1,6.46-14.19,13-28.35,19.17-42.64,1.58-3.64,1-7.57-3.27-9.17-4-1.49-6,1.67-7.79,4.56a46.56,46.56,0,0,0-2.61,5.36c-4.31,9.7-8.66,19.39-12.89,29.13C2509.45,1427.62,2509.59,1427.83,2519.12,1432.44ZM2542.77,1194c6.32-14.68,12.54-28.83,18.45-43.11a6.06,6.06,0,0,0-3.34-8.33c-3.75-1.65-6.74.21-8.19,3.52-6.11,13.94-12,28-17.82,42.05-.18.43.41,1.19.87,2.4ZM780.94,1689.43c-6.41-6.75-13-9.61-20.34-10.53-8.4-1.06-15.15,4.55-14.55,12.32.57,7.4,3.38,13.94,10.92,18Zm1766.14-494.67c10.81,6.61,11.24,6.51,15.56-3.36,4.53-10.31,9.1-20.61,13.38-31,2.11-5.13,1-8.68-2.53-10.26s-6.86,0-9.21,5.2C2558.43,1168.23,2552.92,1181.3,2547.08,1194.76Zm26.42,14.37c6.48-14.87,12.41-28.42,18.24-42a5.25,5.25,0,0,0,.26-3.85c-.94-2-2.19-4.5-3.91-5.11s-4.52.41-6.07,1.67-2.61,3.75-3.54,5.84q-6.84,15.39-13.46,30.89a57.86,57.86,0,0,0-1.92,6.71Zm-134,98.67c9.87,3.94,10.85,3.93,13.6-2.16,5.71-12.65,11.09-25.45,16.61-38.19,1.6-3.69,1.93-7.46-2.15-9.47-4.39-2.16-6.94,1.22-8.47,4.56-4.42,9.62-8.47,19.39-12.66,29.1Q2443,1299.71,2439.54,1307.8Zm148.4-89c6.68-15.06,12.63-28.4,18.5-41.78,1.68-3.85,1.06-7.48-2.88-9.39-4.16-2-7.25.47-8.88,4.06-5.87,13-11.46,26-17.41,39.63Zm-116.41,26.29c5,1,9.36,4.3,11.68-.6,6.95-14.67,13.05-29.75,19.47-44.67.12-.3.28-.73.16-1-1.08-2.19-1.78-4.92-3.53-6.28-.77-.59-3.8,1.49-5.64,2.62a5.43,5.43,0,0,0-1.62,2.47C2485.35,1213,2478.69,1228.48,2471.53,1245.05Zm-49.45,60.43c9.54,2.61,10,2.56,13.07-4.29,5.26-11.84,10.3-23.79,15.42-35.7.65-1.53,1.86-3.24,1.6-4.63-.45-2.35-1.38-5.12-3.09-6.49-.88-.71-4.4.67-5.78,2.05-1.79,1.8-2.8,4.46-3.86,6.88q-7.38,16.92-14.57,33.91C2423.75,1299.87,2423,1302.7,2422.08,1305.48ZM118.59,2086.39c5.9,9.35,39.81,25,56.54,27.4l2.9-8.51c-16.43-6.5-32-12.87-47.8-18.73C127.28,2085.45,123.56,2086.39,118.59,2086.39Zm2417.33-641c6.4-14.38,12.46-27.95,18.47-41.54,1.76-4,3.78-8.27-.83-11.6-3.12-2.25-6.72.34-9.89,7.24-4.84,10.56-9.51,21.21-14.14,31.88C2526.16,1439.07,2526.23,1439.1,2535.92,1445.34ZM228.67,1983.73c-17.08-7-32.89-13.69-48.86-20-3.17-1.25-7.12-2-9.78,1.76,4.63,7.69,4.63,7.7,47.34,24.94,2.07.84,4.31,1.28,6.89,2C225.58,1989.86,226.71,1987.61,228.67,1983.73Zm-10,19.71c-15.63-6.32-31.47-12.9-47.48-19-2.67-1-6.07-.14-9.85-.14,1.05,7.07,5.45,9,9.56,10.72q19.18,8.28,38.56,16.12C216.08,2013.78,216.73,2013.16,218.62,2003.44ZM169.1,2126c-16.24-6.92-32.48-14.24-49.57-19.51-2.81-.87-6-1.15-7.75,2.71,1,5.31,5.72,6.91,9.87,8.64,12.57,5.24,25.24,10.27,37.93,15.19C166.69,2135.81,166.76,2135.64,169.1,2126ZM2561.55,1074.6c6.31.67,11,5.94,14.21-.46,5.3-10.72,9.62-21.92,14.3-32.94,1.86-4.36-.34-7.1-4.06-8.76-3.42-1.53-6,.32-7.31,3.29C2573.11,1048.08,2567.73,1060.53,2561.55,1074.6Zm-12.09,282.18c1.13-1.26,2-1.88,2.39-2.73q8.34-18.55,16.55-37.17c.53-1.2,1.4-2.65,1.12-3.73-.61-2.33-1.34-5.65-3-6.39s-5,.53-6.77,1.94-2.41,3.86-3.35,6q-6.24,14.05-12.36,28.17C2540.41,1351.27,2540.45,1351.29,2549.46,1356.78Zm-50.64-174.94c9.77,3.84,10,3.78,13.53-3.9,2.45-5.42,4.84-10.89,7.18-16.37,2.85-6.69,5.71-13.39,8.39-20.16,1.3-3.28,1.57-7-2.25-8.58s-6.29,1.57-7.63,4.59C2511.5,1152.16,2505.21,1167,2498.82,1181.84Zm91.79-98.41c5.57-12.71,10.91-24.74,16.09-36.85,1.52-3.54.4-6.59-3.07-8.39-3.66-1.9-6.86-.39-8.37,2.88-5.63,12.23-10.88,24.65-16.64,37.83Zm-135.52,158.3c8.75,3.36,9.58,3.28,12.51-3.17,4.79-10.55,9.25-21.24,13.84-31.87,1-2.44,2-4.9,3.06-7.34,1.52-3.54,2.74-7.65-1.64-9.44s-6.32,2.39-7.77,5.68C2468.44,1210.71,2461.94,1225.88,2455.09,1241.73Zm564.67,662.51c10.44-9,13.42-15.09,11-21.71-1.95-5.47-5.87-8.74-11.63-9.44-6.4-.77-11.89,3.1-16.13,11.54ZM2636.59,1108c5.83-13.21,11.07-25,16.2-36.76,1.59-3.65.27-6.64-3.08-8.37-4.1-2.12-7.2-.24-8.92,3.55-5,11.11-9.87,22.31-15.05,34.09Zm-85.74,24.17c5.31-12.31,10.4-23.41,14.89-34.74,2.14-5.43-1.48-10.7-6.11-9.38-2.43.69-5,3.28-6.16,5.67-4.77,10.2-9.06,20.63-13.4,31-.44,1.06-.06,2.47-.06,4.19Zm16.32,5.5c5.43-12.45,10.28-23.64,15.17-34.82,1.77-4,.69-7.29-3.18-9.1-3.64-1.71-6.65,0-8.19,3.4-5.3,11.65-10.37,23.4-16,36.12Zm54.79-39.21c5.67-13,10.72-24.47,15.62-36,1.68-4,.46-7.32-3.47-9-3.72-1.63-6.69.42-8.15,3.63-5.18,11.35-10,22.86-15.29,34.94Zm-56,185.7,9.05,6.63c6.91-15.83,13.25-30.35,19.56-44.88a3,3,0,0,0,.36-1.92c-.82-2-1.37-5-2.9-5.66s-4.13.86-5.85,2c-1.25.85-2,2.62-2.65,4.11C2577.87,1257.16,2572.26,1269.89,2566,1284.14Zm-84.15-104.35c5.64,2.27,9.66,3,11.81-1.8,5.92-13.35,11.61-26.8,17.27-40.26,1.26-3,1.2-6.18-2.15-7.74-3.57-1.66-5.68,1-7,3.72-2.49,5.06-4.69,10.27-6.91,15.46C2490.52,1159.17,2486.31,1169.2,2481.82,1179.79Zm124.81-89.41c5.64-13,10.86-24.83,15.83-36.73,1.54-3.68-.29-6.51-3.64-8.19s-6.17-.17-7.59,2.69a373.65,373.65,0,0,0-16,36.61Zm-41.16,278.47c6.53-15,12.79-29.14,18.87-43.38,1.26-3,1-6.13-2.2-7.79-3.43-1.76-5.62.64-7.37,3.18a27.28,27.28,0,0,0-2.15,4.45c-4.46,10-9,19.94-13.34,30C2556.23,1362.28,2556.32,1362.32,2565.47,1368.85ZM2613,1161.77c5.72-12.59,11.1-24.17,15.68-36.11,1.41-3.66-.78-6.44-4.22-7.85s-6,.41-7.34,3.28c-5.12,11-10,22.12-15.17,33.72Zm-30-17.34,15-34.22c1.8-4.11.53-7.25-3.42-9-3.7-1.62-6.63,0-8.18,3.48-5,11.11-9.82,22.31-15,34.25ZM2785.27,1616l-17.56,21,14.9,13,17.56-21.27Zm299.92,261-18.48,20.28,14.89,13,17.87-19.82c-2.36-2.58-4-4.59-5.87-6.33C3091.24,1882,3088.68,1880,3085.19,1877.09ZM286.7,2151.82c-8.66-3.5-16.47-7-24.5-9.79-4.62-1.62-7.53,1.54-9.39,5.39-2.09,4.32-.67,8.25,3.28,10.23,7.61,3.81,15.45,7.29,24.67,9.25Zm55.08-133.29c-2-1.47-3-2.47-4.15-3-6.1-2.65-12.2-5.36-18.42-7.69-4.77-1.79-8.76-.06-10.89,4.13-2.24,4.42-.88,9.29,4.1,11.67,7.13,3.41,14.57,6.19,22.68,9.58Zm2254.38-867c1.29-.74,2.57-1,2.9-1.73,5-10.81,9.86-21.64,14.6-32.53,1.62-3.71-.15-6.54-3.5-8.12-3.68-1.72-6.69,0-8.23,3.27-5.08,11-9.87,22.14-14.93,33.57Zm5.12,77c1.75-2.6,2.85-3.83,3.49-5.26q7.5-16.82,14.83-33.72c.79-1.81,1.94-3.88,1.65-5.62a8.4,8.4,0,0,0-3.36-5.38c-1.08-.65-3.62.63-5.23,1.54a6.78,6.78,0,0,0-2.32,3.15c-5.59,12.72-11.11,25.48-16.87,38.73ZM332.45,2040.79c-7.86-3.32-14.77-6.4-21.81-9.15-5.95-2.32-10.3-.64-12.41,4.31-1.89,4.46-.22,8.79,5.14,11.3,6.88,3.23,14,5.92,22,9.23Zm2697.12-176.7,14.86,13,18.08-20.51-14.69-13Zm-282.82-279.55c-6.49,6.91-12.24,13.38-17.43,21.49l15,11.71,17.49-21ZM277.65,2175.2c-8.86-3.49-16.43-6.72-24.19-9.41-4.3-1.49-7.84.37-9.81,4.54s-.75,9.05,3.57,11.06c7.43,3.45,15.17,6.24,23.56,9.63C273.08,2185.72,275,2181.29,277.65,2175.2Zm2397-1113.87c.86-1.87,1.43-3.07,2-4.29q6-13.59,12.08-27.19a7.92,7.92,0,0,0,.6-1.88c.55-3.64,1.34-7.6-2.72-9.68-4.25-2.18-6.8,1.09-9,3.94a29.49,29.49,0,0,0-3.31,6.08c-1.92,4.21-3.69,8.49-5.55,12.73C2664.18,1051.31,2664.18,1051.3,2674.64,1061.33Zm332.22,782.48c6.55-7.58,13.43-13.09,17.54-21.31l-14.11-12.12-18.08,20.67Zm-418-542.51c6.44-14.41,12.55-28,18.53-41.61,1.58-3.6,4-8.21-1.19-10.32-5-2-6.71,2.9-8.32,6.43q-7.42,16.34-14.53,32.8C2580.53,1295.1,2580.64,1295.15,2588.85,1301.3Zm38.74,222.23c5.21-6.46,9.58-11.8,13.84-17.23a36.9,36.9,0,0,0,2.64-4.9l-14.26-11a114.66,114.66,0,0,0-17.1,21.34Zm77.95,62.83c6.26-7.72,11.53-14.24,17.34-21.4l-15.33-12.2-17.25,21Zm-21.78-52.72c-6-4.91-9.49-10.43-16.77-10.91l-15.72,20.08,15.67,11.68Zm288.77,243.71-18.08,20.57,14.88,13,18.05-20.58Zm131.72,153.28,14.22,13.53,18.65-20.65-14.87-12.76Zm-532.56-915.77c6.63.79,12.72,1.83,15.55-3.4,4.37-8.06,7.45-16.86,10.57-25.53,1.15-3.2.15-7.34-3.56-8.1-2.21-.45-6.1,1.33-7.37,3.31C2580.31,991.38,2576.16,1002.74,2571.69,1014.86Zm-14.3,58.38c5.45-12.54,10.71-24.61,16-36.7.26-.6.65-1.37.47-1.89-.81-2.31-1.26-5.62-2.92-6.49-1.44-.75-4.56,1-6.51,2.29-1.2.79-1.68,2.76-2.34,4.28-4.46,10.31-8.94,20.61-13.26,31-.7,1.67-.62,3.66-1,6.23Zm59.14,165.57c6.34-14.31,12.53-28.09,18.51-42,1.25-2.91,1-6.56-2.53-7.39-1.84-.43-4.4,1.79-6.47,3.08-.71.45-.94,1.7-1.34,2.61-4.73,10.57-9.35,21.18-14.2,31.69C2608.05,1232.14,2609.37,1235.69,2616.53,1238.81Zm13,330.46,23.17,14.19c6.3-5.63,8.59-11.4,6.1-18.43a12,12,0,0,0-10.24-8.28C2639.7,1555.71,2634.5,1560.9,2629.51,1569.27Zm-105.24-444.52c9.11,3.51,9.51,3.43,12.72-3.7,2.59-5.76,5-11.6,7.47-17.41,1.69-4,3.36-8,5.05-11.93,1.51-3.57,1.14-6.7-2.78-8.22-3.59-1.39-5.54,1.13-7.08,3.87-.81,1.45-1.5,3-2.16,4.49-3.69,8.54-7.42,17.07-11,25.66A72.67,72.67,0,0,0,2524.27,1124.75Zm6.41-57.69c8,3.23,9,3.38,11.17-1.41,5.11-11.12,9.73-22.47,14.48-33.76,1.3-3.09,1-6.17-2.32-7.65-3.55-1.61-5.65,1-6.92,3.81q-6.69,15-13.09,30C2532.74,1061,2531.77,1064.09,2530.68,1067.06Zm121,49.87c5.43-12.52,10.57-24.31,15.66-36.13.38-.89.81-2.15.47-2.86-.82-1.7-1.79-3.92-3.28-4.52a6.16,6.16,0,0,0-5.3,1.12c-1.66,1.44-2.7,3.74-3.64,5.83q-5.31,11.82-10.37,23.75C2642.13,1111.42,2642.2,1111.46,2651.67,1116.93Zm-144.68,4.3c5,3,9.07,4.17,11.52-1.18,4.94-10.8,9.51-21.78,14-32.76,1.24-3,.85-6.53-2.7-7.27-1.87-.39-5.49,1.34-6.28,3C2517.8,1095.57,2512.53,1108.3,2507,1121.23Zm120.67,49.89c5.41-12.23,10.5-23.69,15.52-35.19a6.18,6.18,0,0,0,.37-2.93c-.38-4.13-5-6.3-8.05-3.55a20,20,0,0,0-4.33,6.54c-3.34,7.25-6.47,14.59-9.61,21.92S2618.48,1165.2,2627.66,1171.12Zm38.22-43.86c5.48-12.35,10.58-23.82,15.63-35.31.39-.89.89-2.1.58-2.85-.81-2-1.64-4.37-3.24-5.39-.95-.61-3.81.59-5,1.79-1.56,1.58-2.46,3.89-3.41,6-3.54,7.86-7.06,15.74-10.46,23.66C2657.19,1121.64,2657.27,1121.67,2665.88,1127.26ZM2642.16,1181c5-11.32,9.7-21.87,14.35-32.44.53-1.2,1.48-2.63,1.21-3.69-.52-2-1.36-4.44-2.89-5.51-1-.7-3.84.22-5.18,1.27s-2.28,3.2-3.09,5c-3.54,7.84-7.1,15.68-10.42,23.62C2633.4,1175.71,2633.54,1175.77,2642.16,1181Zm30.54,415c7,5.69,14.24,10.85,22.49,14.72,4.81-10.19,3.53-16.93-3.2-20.92C2685.65,1586,2679.35,1587.83,2672.7,1596ZM2986.78,1866c7.81-8.48,8.41-14.87,2.86-20.88s-12.53-5.69-20.64,1.65ZM3055,1835.8l14.89,12.32,11.52-12.48-15-13.14C3062.42,1827.18,3059.24,1830.87,3055,1835.8Zm52.16,46.29c4.24-4.91,7.57-8.75,11.5-13.29-5.26-4.5-9.66-8.25-14.74-12.58l-11.16,12.87Zm-377.34-325.45,10.5-13.78-15-12-10.81,13.36Zm38.55,31.49,11.26-13-15.42-12.45c-4,5-7.15,8.91-10.81,13.49Zm275.44,214-15-12.75-11,13.06,14.6,12.55Zm-353.25-277.28c4-5,7.18-8.92,10.88-13.52l-15.28-12-10.68,13.4Zm-39.29-31.17,10.9-13.84-15-11.93-10.85,13.16Zm478.2,409.34c6.54,3.93,9.14,10.4,16.31,11.31l10.06-11.7L3141.52,1890ZM718.77,1740.7c9.38-5.33,16.89-12.21,20.63-18.61-8.63-4.57-15.06-4.49-19.88.64C714.46,1728.13,714.88,1734,718.77,1740.7Zm486.45-683.07c-6.74-7.12-10.11-14.17-17.85-18.41-2.52,8.14-6.76,14.84-6.6,24.22Zm1728.69,752.84c7,6.56,11.94,13.75,19.72,18.21,4.67-8.78,4.41-13.61-.49-18.57S2943.08,1805.12,2933.91,1810.47ZM1678.09,1326.84c18.32,2.3,24.9,1.49,29-9.27-8,0-15.89,0-23.76,0a30.51,30.51,0,0,0-5.19,1ZM737.78,1143.27c-5.37-4-12.06-4.37-14.81-10.42-.39-.88-3.81-1.16-5.39-.56-2.61,1-4.87,3-7.21,4.45C716.44,1148,727.26,1150.76,737.78,1143.27ZM1212.45,1056l21.89-5.47c-5.29-6.81-9.49-12.28-17-15.76C1215.75,1041.65,1214.39,1047.57,1212.45,1056ZM682.06,1776.86l19.34-18.66c-8.4-2.07-14.4-3.24-19.44,2.1C677.82,1764.69,678,1769.67,682.06,1776.86Zm-240-126.5-14.51-11.95-7.77,9.82,15.05,11.4Zm47.28-60.45,7.61-9.77-14.44-11.65-7.79,9.28Zm711-573.54c2.29,12.12,4,22,8.13,33.09C1217,1028.08,1216.06,1028.61,1200.38,1016.37ZM551.47,1524.78l7.81-9.82L545,1503.5l-7.73,9.25Zm724.64-324.33c2.85,11.73,5,16.11,10.84,22.26l8.3-16.63ZM401.87,1725,387,1713.64l-6.12,9.9L395.78,1735Zm2312.58-100,20.08,14.19c2.58-8.77,1.47-12.81-3.86-16.49C2725.86,1619.34,2721.74,1619.71,2714.45,1625ZM1190,1257l-14.24-9.8c-3,8.3-5.16,15.21-5.21,24.58Zm-495.92-136.5c6.49,10.33,10.63,12.56,21.15,1.18l-4.68-8.51ZM2775,1668.2c2.1-7.5.5-12.29-4.83-15.64-4.92-3.09-8.45-2.67-14.56,2.32C2762.26,1659.2,2767.31,1665.33,2775,1668.2ZM1614.09,1214.87l15.12,2.9c-2.06-8.73-2.25-16-4.56-22.71l-2.75-.2C1619.49,1201.05,1617.07,1207.23,1614.09,1214.87Zm-967.4,595.89c6.46-5.08,12.43-9.86,16.67-17.27-6.94-2.62-12.3-1.82-16.36,3C643.48,1800.66,643.46,1805.46,646.69,1810.76Zm573.88-806.9-20.32,5.55c5.76,5.45,10.09,9.56,15.75,14.94C1217.64,1017,1218.81,1011.75,1220.57,1003.86Zm-43.78,45.24c8.84-12.83,10.79-15.81-4.24-27.35C1174.11,1031.85,1175.45,1040.47,1176.79,1049.1Zm39.89,37.75,2.8.21,6.19-14.28c-4.39-3.58-7.82-6.92-14.28-7.46C1213.31,1073.13,1215,1080,1216.68,1086.85ZM1638,1118.37c-7.93-5.78-7.93-5.78-14.82-2.43,2.58,5.75,3.81,12.21,10,17.22C1634.88,1127.82,1636.38,1123.25,1638,1118.37Zm-443,111.29,15.58,10.66c-.61-8.86,1.82-15.4-2.14-23Zm125.48-16.06-7.87,14.93,18.11,3.51c.4-.57.79-1.14,1.18-1.72Zm-124.84-196.52c-8,15.93-7,19.73,6.71,27.78C1200.08,1035.59,1198.11,1027.41,1195.61,1017.08Zm35.77,22.12c-1.4-11.32-3.93-18.7-8.19-24.56C1217.37,1028,1218,1029.91,1231.38,1039.2Zm-42.76-72.35,18.63-4-12.84-14.09ZM1165.48,982c2.54,9.29,1.25,17.81,6.24,25.72C1177.83,993,1180,989.89,1165.48,982Zm45.85-11c-7.95,10.34-8.75,15.84,7.2,23.69C1216,986.47,1213.89,979.42,1211.33,971Zm-25.89,95-.82,2.62,10.77,8.77,8.69-12.92c-.38-.64-.76-1.27-1.13-1.91Zm6.38-52.84-2-1.94-15.16,4.13c4.06,5.37,6.09,10.21,12.34,11.73C1188.73,1022.09,1190.27,1017.6,1191.82,1013.1ZM358.71,1778.59c-4.21,7.55-.8,13.27,10,16.68C371.13,1787.75,369.57,1785.13,358.71,1778.59Zm1560.62-492.07c-1.24,1.61-1.88,2.07-1.95,2.61-.35,2.61-.61,5.24-.78,7.87-.56,9,1.64,10.5,11.74,7Zm-721.07-206.69,11.93,9.55c.7-.44,1.39-.89,2.08-1.34-1.45-6.08-2.89-12.16-4.92-20.68Zm1818.94,461c-4.81-6.93-10.93-8.57-18.48-11,.85,3.65.73,6.69,2.16,8.56C3004.91,1543.68,3010.45,1541.24,3017.2,1540.82ZM1214.37,1001.55l.38-2.58-11.19-9.71c-1.91,6-3.22,10.11-5.1,16Zm-48.76-31.22,1.62,1.94,14.67-4-11-13C1168.7,961.5,1167.16,965.92,1165.61,970.33Zm18,121.12,2.21.41,7.37-10.79-10.49-8.49-1.88,1.3Zm107.39,137-1.82,2.13,9.17,14.12c2.85-5.31,4.73-8.79,7.23-13.44Zm-97.18,22.27,2.28,1.52,11.46-8.56-12.34-8.54C1194.66,1241.75,1194.25,1246.25,1193.85,1250.75Zm89.54-66.6c-3.7,4.78-5.94,7.66-9,11.65l15.29,4.53,1.53-1.76C1289,1194.52,1286.8,1190.46,1283.39,1184.15Zm-41.5-106.85,2.29-1.53-5.58-16.46-2.3.08-5,11.56Zm55.7,133.09-6.5,13.2c5.26,2,9.41,4,15.18,2C1303.52,1220.74,1301.19,1216.66,1297.59,1210.39ZM1240.11,1084c.18-.92.36-1.84.55-2.75l-11.35-6.74-5.56,13.26Zm-64.62-73.4,16.4-4-11.41-12.11C1178.68,1000.33,1177.46,1004.27,1175.49,1010.6Zm57.9,44.38-16.82,4.18c-.12.69-.25,1.39-.37,2.09l11.79,7.21Zm4.94,90.72c9.26-3.25,17.75-2.67,25.87-7.74C1248.65,1135.8,1246,1136.51,1238.33,1145.7ZM1209,1211.25c-4.35-2.92-7.79-6.88-11.39-3.76-4,3.43-2.67,8.72-.42,15.07Zm-17.72,25.38-2.37-1.17-9.77,9,11.08,7.39C1190.67,1245.35,1191,1241,1191.28,1236.63Zm-1.41-265.84,12.17,11c1.62-5.74,2.66-9.47,4.17-14.84Zm18.7,294.14c.54-6.28.91-10.71,1.29-15.13l-2.09-1-10.54,8.09Zm75.73-83.17c6.16,1.83,10.18,3,14.21,4.2l1.29-1.88-7.88-11.76Zm19.61,26.83-1.23,2.08c2.18,4,2.83,9.13,8.64,11.53,1.64-3.19,3.08-6,5.07-9.84ZM1177.59,939.4c-6.74,10.42-6.39,12,4.27,19.74C1180.35,952.18,1179.16,946.67,1177.59,939.4Zm16.31,264.19-10-6c-.91,5.84-3.32,9.8-.68,15.76Zm70-31.22,2.62.37c1.48-2.94,3-5.89,4.49-9-3.86-2.54-6.62-4.77-11.18-2.67Zm326.31-41.44a43.09,43.09,0,0,0,9.68-20.34c.14-.68-1.43-1.69-2.19-2.53-1,.78-1.78,1.09-1.91,1.57C1593.91,1116.72,1592.09,1123.83,1590.25,1130.93Zm-289.51,72.67L1313,1207l1.2-2-7.69-10.94Zm-114.57-247c6.24-11,6-11.83-4.27-17.63Zm-25.81-12.81a30.87,30.87,0,0,0,3,17.69C1168.7,951.18,1168.7,951.18,1160.36,943.77Zm16.7,293.87,2.4.95,9.56-8.92-9.3-6.18C1178.65,1229.15,1177.86,1233.39,1177.06,1237.64Zm15.39-296,4-14.9-14,3.8Zm4.08,256.78,2,1.51,8.86-7.38-10.88-7.21Zm1.7-44.72c12.42-.82,13.36-1.13,17.2-5.76C1208.46,1146.16,1202.56,1146.88,1198.23,1153.73ZM1168.31,976l10.41,10.59c1.4-5.48,2.25-8.86,3.54-13.94ZM1206.19,1092l-10.07-8.33-6.29,10,1.12,1.71Zm73,89.35,1.63-2.43-6.84-11.79-5.71,11.54Zm-95.18-27,2.29,1.27,10.06-7.39c-.25-.75-.51-1.51-.77-2.27l-10.64-.93C1184.56,1148.73,1184.28,1151.5,1184,1154.27Zm-23.91-218.64,9.36,10.55,4-14Zm0-6.43,1.66,2,11.46-3.29-8.7-10.5Zm37.68,250.23c3.76,4.08,5.83,7,11,6.27-.56-4.45-1.06-8.45-1.56-12.45l-2.88-1.41Zm-582.19,665,10.09-11.06C615.77,1834,615,1834.76,615.54,1844.39Zm571.89-862.64c-6.67,8.51-6.49,9.17,3.16,14.61C1189.4,990.86,1188.41,986.3,1187.43,981.75ZM1200.15,935c-5.76,9.9-5.17,11.57,4.52,15.38C1203.22,945.44,1202,941.23,1200.15,935Zm-49.72-43.59c5.73-11.11,5.57-11.81-2.89-16.79C1148.47,880,1149.27,884.66,1150.43,891.42ZM1193,981.23c.13,8.08.13,8.08,3.76,12.71C1201.29,985.53,1201.23,985.33,1193,981.23Zm-27.07-82.59L1153.38,901l8.89,8.68C1163.66,905.48,1164.52,902.89,1165.93,898.64ZM1183.75,914c-1.61,5-2.51,7.9-4.08,12.82l12.39-3.39ZM1297.32,1201c2.21-4,3.47-6.33,5.34-9.76l-12.17-2.8C1293.25,1193.55,1294.85,1196.49,1297.32,1201Zm-106.38,25v-13.87l-8.27,7.34Zm47-95.76c.24.93.47,1.86.7,2.79,5.88,1.42,11,.29,16.62-6.47Zm-48.49-229.06c-4.86,9.1-4.61,9.78,4.79,15.48C1192.64,911.45,1191.36,907.34,1189.47,901.21ZM355.85,1846c-6.16-10.39-6.66-10.77-13.09-10.59C345.26,1840.46,348.6,1843.89,355.85,1846Zm830.33-952.25-11.91,2.77,7.74,8.65C1183.56,900.92,1184.48,898.4,1186.18,893.73Zm24.57,244c-5.51-.19-9.42,1-14.72,3.6C1202.75,1143.85,1206.87,1143.39,1210.75,1137.7Zm-45.68-243.3-6.89-9.91-3.39,11.7Zm60.85,250.76c-2.31-3.54-3.63-6.85-4.55-6.74-2.42.28-4.67,2-7,3.23l.6,2.45Zm-69.37-222.07c5.17-9.6,4.68-11.06-2.45-11.3ZM1270,1132.8c-3.32-8.12-3.66-8.11-10.74,0Zm-97.91-216.46-2.73-10.21C1164,911.84,1165.93,914.71,1172.08,916.34ZM1144.73,839c-.27.66-.53,1.33-.8,2l6.09,5.65v-8Zm34.89,431c8.32,0,8.32,0,8.94-6.67Zm-5-363.08,2.13,10C1181.76,911.69,1180.64,908.8,1174.64,906.92Zm96.63,283.56,2.1.13c.6-1.67,2.18-4.1,1.6-4.84-1-1.31-3.37-1.59-7.13-3.09Zm-91.69-320.12c-3.31,6.88-3.31,6.88,3.47,10.1C1181.83,876.89,1180.84,874,1179.58,870.36Zm4.5,19.16-6.1-6.7-3,1.7.6,6.46Zm132.82,344c2.92,5.52,2.92,5.52,10.63,2ZM343,1874.34c-.78.83-1.57,1.66-2.35,2.5,3.41,2.57,4.86,7.47,11.29,6.59Zm842.15-688.65c6.34-4.87,6.34-4.87-.41-7.84C1184.88,1180.53,1185,1182.78,1185.15,1185.69ZM1171.6,871.86c3-4,3.94-6.39.54-7.78-1-.39-2.68,1-4.05,1.64Zm-2.75-35.66c-1.86-1-3.27-2.4-4.17-2.12-1.11.35-2.6,2.22-2.43,3.18s2.06,2.72,3.09,2.64S1167.3,837.94,1168.85,836.2Zm57.57,302.16c5.08,5.63,7.59,3.9,10.54-.82a43.63,43.63,0,0,0-5.49-.51C1230.32,1137.07,1229.18,1137.61,1226.42,1138.36Zm57.53,24.72c.52-3.91-.45-6.12-4.79-6.79C1277.2,1161.07,1279.28,1162.55,1284,1163.08Zm-131-306.44-2.53.53c-.38,2.19-.75,4.37-1.46,8.53,3.43-1.93,6.21-2.6,6.59-4S1153.89,858.37,1152.92,856.64Zm19.93.63c-2.11-1.44-3.4-3-4.51-2.88s-2.35,2.07-2.41,3.26c0,.81,1.87,2.41,2.91,2.41S1171.06,858.6,1172.85,857.27Zm51.85,420.92c5.19-2.87,5.28-5-.71-6.53C1224.27,1274.28,1224.49,1276.24,1224.7,1278.19ZM1192,1189.77l-2.15-.84-3,4.84,4.1,1.75Zm90-22.79-2,2.5,4.51,4c.76-1,1.52-1.93,2.29-2.89Zm24.58,73.21c2.57,1.54,4.86,1.65,6.06-1.6.29-.78-.71-2.87-1.48-3.09C1307.53,1234.46,1307.06,1237.2,1306.59,1240.19Zm-33.19,28c4.2-3.25,5.11-5.4,1-7.4-.65-.32-1.71.23-3.12.47C1272,1263.35,1272.48,1265.08,1273.4,1268.17Zm-6.7-111.43,1-2.27c-1.64-2.78-3.71-3.32-7.42-.07Zm-14.93,104.1-.09,2.56c1.61-.15,3.22-.24,4.79-.53.2,0,.21-1.11.3-1.71Zm-41.12-58.71c-1.43-1.35-2.56-2.93-3-2.76-1.29.5-2.3,1.72-3.41,2.65.79.88,1.63,2.51,2.36,2.47C1207.77,1204.42,1208.89,1203.23,1210.65,1202.13Zm-15.19,57.78c-1.92,4.07-3,6.59.83,7.5.89.21,2.12-1,3.19-1.48ZM1161,869.4c-2.72-.91-4.14-1.76-5.55-1.72-.9,0-2.64,1.68-2.5,2.06a7.86,7.86,0,0,0,2.58,3.38C1155.79,873.33,1157.25,872,1161,869.4Zm8.7,4.18c-2.28,4.93-2.89,7.38,2.83,9.66C1171.45,879.61,1170.84,877.51,1169.68,873.58Zm11.9,413.1a28.5,28.5,0,0,0-3.76-3.15c-.24-.14-1.86,1.17-1.77,1.53a20.1,20.1,0,0,0,1.79,3.75Zm-19.25-462.39c-1.28,2-2.22,2.85-2.37,3.85-.11.68,1.06,2.24,1.35,2.17,1.06-.27,2.6-.89,2.81-1.68S1163.34,826.54,1162.33,824.29Zm-7.81,28.39,2.26-1.19-2.46-4.31c-.52.32-1.53.78-1.49.93C1153.3,849.66,1153.93,851.16,1154.52,852.68ZM1296.63,1261l2.33.3a31.8,31.8,0,0,0,.57-4.83c0-.26-1.65-.5-2.54-.75ZM1150.47,832c-2.06-1.44-3.12-2.53-4.37-2.87-.43-.11-1.95,1.67-1.9,2.53s1.41,2,2.34,2.18S1148.49,833,1150.47,832Zm56.26,439c-.89.77-1.94,1.25-2.11,2-.13.54.84,1.34,1.33,2l2.64-1.94Zm-20.44,8.37c-1.34-1.24-1.89-2.15-2.5-2.2a3.12,3.12,0,0,0-2.41.95c-.27.37.44,2.16.77,2.18C1183.2,1280.32,1184.28,1279.85,1186.29,1279.34Zm47.57-12.18c-1.23-.69-2.3-1.66-2.7-1.43a10,10,0,0,0-2.26,2.48c.88.33,1.79,1,2.61.88S1232.84,1268.05,1233.86,1267.16Zm102.37-17.37a16.24,16.24,0,0,0-2.09-3.09c-.18-.17-2,.79-2,1.13a5.81,5.81,0,0,0,1.25,2.93C1333.56,1251,1334.85,1250.28,1336.23,1249.79Zm-58.37-96.28-1.45-2.42c-1-.35-2.12-1.06-3.1-.93-.65.08-1.79,1.71-1.61,2a4.58,4.58,0,0,0,2.53,2.3C1275.35,1154.67,1276.64,1153.87,1277.86,1153.51Zm28.9,97.5c-2.3-1.29-3.09-2.11-3.77-2s-1.42,1-2.13,1.58c.84.67,1.59,1.7,2.52,1.89C1304.15,1252.61,1305.12,1251.76,1306.76,1251ZM1145.64,849.66l-1.78.53c.55,1.44,1.11,2.87,1.66,4.31.52-.26,1.52-.63,1.49-.74C1146.64,852.37,1146.12,851,1145.64,849.66Zm-4.87-40.45c1.53-1.68,2.63-2.37,2.61-3s-1.06-1.43-1.66-2.14c-.78.75-1.91,1.39-2.23,2.31C1139.27,807,1140.19,808,1140.77,809.21Zm21.18,67.2-1.75.3,1,4.81,1.76-.37Zm-.62-32.43c-.53,1.85-1.13,2.8-.92,3.52.29,1,1.16,1.89,2.27,3.54.59-1.84,1.26-2.8,1-3.5C1163.42,846.5,1162.5,845.64,1161.33,844Zm91.19,426.27c-.8-1.23-1.23-2.39-2.07-3-.43-.3-1.58.43-2.4.7.53,1.24,1.07,2.49,1.61,3.73Z"/><path d="M2374.23,2712.65c-159.95,22.4-320.62,32.4-483.19,27.84,1.8-6.45,6.49-8.56,10.61-10.55,11.35-5.47,22.95-10.43,34.46-15.56,3.63-1.62,7.39-3,10.94-4.77,6.16-3.1,9.1-8.64,10.23-15.11,1-5.84,1.77-11.75,2.27-17.65,1.17-14.08,7.18-26.09,15.41-37.19a34,34,0,0,1,13.86-10.89,63.5,63.5,0,0,0,17.06-11.9c13-12.43,28.24-13.48,44.55-9.58a29.48,29.48,0,0,0,18.25-1.05c24.83-9.41,49.87-18.26,74.9-27.15a44.16,44.16,0,0,1,19.56-2c16.85,1.64,33.8,2.66,50.72,3,7.52.14,15.06-2.28,22.63-3.06,6.55-.68,13.4-1.92,19.72-.76,21.28,3.9,27,21.76,27.4,38.5.11,4.81-3.12,7-7.79,7.26-4.3.27-8.69.25-12.85,1.18-8.1,1.8-10.49,8-5.84,14.94,1.82,2.72,4.06,5.87,6.86,7.09,9.46,4.09,15.75,12.06,23.71,17.93a35.8,35.8,0,0,0,10.49,5c13.73,4.29,26.77,9.4,37.45,19.81,6.83,6.66,14.71,12.15,24.58,14.53,5.23,1.26,9.89,4.93,14.81,7.51C2374.76,2710.91,2374.5,2711.78,2374.23,2712.65Z"/><path d="M1361.16,2070.94c-12-.31-12-.31-13.85-9.88,11.46,1.62,22.64,3.1,33.78,4.82,4.91.75,8.91,3.63,10.07,8.38,1.41,5.82,5.29,7.28,10.2,7.48,9.25.39,18.91,1.63,25.85-6.59a9.83,9.83,0,0,0,1.87-6.8c-1-8.48-2.5-16.9-3.75-24.89,8.92-6.09,9-6.09,17.24-.63,9.59-2.95,2.71-11.74,6-17.1a10.94,10.94,0,0,1,11.63,2.27c5.73,5.06,12,7.26,20,6.19,11-1.46,18.12,6.3,17,17.47-.5,4.89-2,9.69-3.07,14.51-.36,1.54-1.37,3-1.55,4.52-1.14,9.5-3.37,11.19-12.7,9.29-8.4-1.7-11.49.47-12.43,8.93-.59,5.27-1.06,10.55-1.48,15.83-1.06,13.32-9.47,20.77-20.84,25.48-8.29,3.43-14,.21-17.22-8.11-1.74-4.45.46-11.8-5.18-12.9-4.06-.79-9,3.09-13.58,4.78-9,3.32-9.56,4.09-14.32-4.4-2.84-5.08-8.88-8-9.27-14.89-.18-3.17-3.59-3.12-6.45-2.69-10.18,1.53-12.25.24-15-9.22C1363.11,2079,1362.23,2075.15,1361.16,2070.94Z"/><path d="M1836.9,2101.51c-8.15-.54-13.34-2.64-15.11-8.25-3.45-11-12.66-13.16-21.37-12.39-12.47,1.11-18.59-4.24-22.12-15-.93-2.83-2.52-5.44-3.43-8.28-3.38-10.46,3.53-19.31,14.28-17.55,9.43,1.55,18.84,3.53,26.26,10.86,2.47,2.44,7.41,4.54,10.54,3.82,16.52-3.83,34.06.62,50.14-6.4a10.32,10.32,0,0,1,5.88-.47c9.23,1.91,17.85,5.42,25.24,11.35,4.76,3.82,5.1,6.14,1.76,11.08-4.69,6.95-9.39,13.21-19.74,12.59-7.41-.45-15.43.9-20.76,7.7a1.82,1.82,0,0,1-.82.57C1856.69,2094.86,1845.73,2098.54,1836.9,2101.51Z"/><path d="M2039.16,2276.9c2.17,12.81-4.61,21.48-15.92,27.37-8,4.14-16,8.27-24.28,11.6-11,4.41-18.85,0-22.22-11.18-1.12-3.71-1-6.65,2.16-8.8,5.06-3.41,5.17-8.08,3.93-13.23-.69-2.91-1.56-5.77-2.17-8.69-1.63-7.75.81-11.92,8.68-12.19,6.4-.22,10.47-2.86,14.27-7.48,7-8.47,12.78-10.22,21.77-7.25,9.21,3,12.13,10.69,13.68,19.08C2039.66,2269.35,2039.16,2272.77,2039.16,2276.9Z"/><path d="M2486.4,2692.52,2415.78,2704c-.29-2.67-1.55-5.54-.63-7.25a235.22,235.22,0,0,1,12.34-20.34c2.72-4,6.72-5.17,11.33-2.76,1.47.77,3.11,1.21,4.53,2C2456.18,2683.17,2469.33,2689.83,2486.4,2692.52Z"/><path d="M2295.87,2565.63c2.72-4.83,7.12-4.18,10.83-3.69a210.27,210.27,0,0,1,24.45,4.48c7.27,1.86,13.55,11.92,13.06,19.39-.56,8.77-12.24,14.86-19.74,9-9.85-7.66-18.33-17.1-27.3-25.88C2296.34,2568.14,2296.23,2566.6,2295.87,2565.63Z"/><path d="M2822,2033.52c-5.23-1.54-10.06-2.62-14.63-4.39-6.6-2.56-7.51-5.14-4.82-11.37,3.92-9.08,19.88-15,28.94-10.71,9.41,4.44,10.81,15.73,2.3,21.78C2830.48,2031.18,2826.05,2032,2822,2033.52Z"/><path d="M2231.47,2531.05a21.31,21.31,0,0,1,6.74-17c3.46-3.38,7.56-4.12,11.83-1.61,8.19,4.81,11,18.57,5.45,26.29-4.2,5.87-10.13,8.38-15.32,6.5C2234.55,2543.17,2231.51,2538.22,2231.47,2531.05Z"/><path d="M1339.78,2022.48a15.59,15.59,0,0,1-2.8,1.5c-17.71,3.56-22.4-.57-22.13-20.73,7.73-1.07,15-.93,22,3.94C1343.38,2011.67,1339.63,2017.11,1339.78,2022.48Z"/><path d="M746.52,1833.06c-5.14-2-10.74-3.36-15.47-6.17-6.43-3.82-5.87-9.43.62-13.07,8.27-4.64,23.33,1.7,25.42,10.94.34,1.52-.59,4.24-1.82,5C752.89,1831.32,749.88,1831.88,746.52,1833.06Z"/><path d="M2146.46,2532.46c2.95-4.29,4-6.86,5.94-8.35s5-2.9,6.7-2.17,2.48,4.11,2.78,6.45c.42,3.31-1.51,6-4.87,6.15C2154.12,2534.65,2151.17,2533.45,2146.46,2532.46Z"/><path d="M676.2,1915.12c9.84-5.37,11.92-4.86,16.4,3.44C684.28,1921.82,682.74,1921.54,676.2,1915.12Z"/><path d="M1724.57,1987.36c-4.46,0-7.26.6-9.59-.19-1.87-.63-3.56-2.75-4.53-4.62-.4-.77,1.23-3.75,2-3.78a13.11,13.11,0,0,1,7.1,1.42C1721.31,1981.28,1722.18,1983.79,1724.57,1987.36Z"/><path d="M3571.66,2178c-13.33.08-26.74,2-41.47-1.82C3538.65,2171.32,3565,2172.36,3571.66,2178Z"/><path d="M3508.83,2148c5.1-3.83,6.6-.75,8.37,1.61,9.16,12.28,11.22,16.95,9,22.87C3518.79,2165.07,3514.89,2156.1,3508.83,2148Z"/><path d="M200,2149.3l10.41,5.23Z"/><path d="M206.35,2160.52l-10.44-4.23Z"/><path d="M263.27,2004.59l-15.41-6.19Z"/><path d="M222,2077.34l14.33,7.24C230.79,2083.67,225.49,2082.29,222,2077.34Z"/><path d="M222.33,2086.58l-10.43-4.23Z"/><path d="M232.36,2090.58l-10.48-4.24Z"/><path d="M209.28,2138.49l-15.37-6.19Z"/><path d="M217.93,2092.35l10.41,4.22Z"/><path d="M258.35,2010.65l-14.45-6.26Z"/><path d="M264.38,2020.62l-15-6.24Z"/><path d="M223.91,2056.36l10.43,4.23Z"/></g></g></svg>